<?xml version="1.0" encoding="utf-8"?>
<!-- Generator: Adobe Illustrator 27.2.0, SVG Export Plug-In . SVG Version: 6.00 Build 0)  -->
<svg version="1.1" id="Layer_2_00000009562862481514960310000017121353984596389517_"
	 xmlns="http://www.w3.org/2000/svg" xmlns:xlink="http://www.w3.org/1999/xlink" x="0px" y="0px" viewBox="0 0 195.8 116.1"
	 style="enable-background:new 0 0 195.8 116.1;" xml:space="preserve">
<style type="text/css">
	.st0{fill:#F98516;}
</style>
<g id="Layer_2-2">
	<g id="Layer_1-2">
		<g>
			<path class="st0" d="M34.5,112c-2.9-1.4-4.1-3.6-3.8-6.7c0-0.5,0.6-1.2,1-1.3c1.5-0.4,3.1-0.7,4.7-1c2.6-0.5,3.9-1.7,4.2-4.1
				c0.1-0.6-0.1-1.5-0.5-1.9c-0.2-0.2-1.1,0-1.7,0.1c-0.3,0.1-0.6,0.3-1,0.4c-0.8,0.3-1.9,0.9-2.5,0.6c-0.9-0.4-1.8-1.3-2.2-2.3
				c-0.2-0.5,0.5-1.4,0.8-2.1c0.2-0.7,0.4-1.4,0.6-2.1c-0.7-0.2-1.4-0.4-2.2-0.5c-0.9-0.1-2.2,0.7-2.5-0.7c-0.2-0.7,0-1.9,0.5-2.4
				c0.7-0.7,2.2-1.4,2.8-1c0.8,0.4,1.2,1.8,1.8,2.9c-0.5-1.2-0.7-2.7-1.5-3.6c-0.4-0.5-2-0.1-3,0.2c-1.3,0.5-1.8,2.5-1.3,4.2
				c0.2,0.6,0.6,1.1,0.8,1.7c0.6,1.6-0.4,3.1-2.1,3.1c-0.3,0-0.8-0.4-0.9-0.7c-0.3-1.3-0.5-2.6-0.8-3.9c-0.2-1-0.7-1.9-1-2.9
				c-0.9,0.3-1.9,0.5-2.6,1c-3.3,2.4-3.6,3.4-2,7.2c0.3,0.8,0.7,1.5,0.9,2.2c0,0,0,0,0,0.1c0.4-0.1,0.7,0.5,1.2,0.9
				c2.1,1.6,4.2,3.2,6.5,4.4c1,0.5,1.3,0.8,1.1,1.8c-0.4,2.2-0.1,4.2,1.5,5.8c0.6,0.4,1.2,0.7,1.9,1c0.9,0.4,1.8,0.9,2.8,1.3
				c-0.6-0.2,0.1,0,0.2,0.1c0.2,0.1,0.5,0.2,0.7,0.3c0.1,0,0.2,0.1,0.3,0.1c0.2,0,0.4,0.1,0.6,0.1c-0.5-0.1,0.2,0,0.2,0
				c0.2,0,0.4,0,0.7,0.1c1,0.1,1.9,0.3,2.8,0.4c0.2,0,0.4,0.1,0.6,0.2c2.1,0.4,4.2,0.8,6.3,1c0.8,0.1,1.6-0.4,2.5-0.7
				C45.5,114.3,39.8,114.5,34.5,112z M38.5,98.8c0.2-0.4,0.3-0.8,0.5-1.1c0.2,0.5,0.6,0.9,0.6,1.4c0,0.5-0.3,1.1-0.4,1.6
				C39,100.1,38.8,99.5,38.5,98.8L38.5,98.8z M35.1,99.8c0.1,0.3,0.2,0.6,0.3,1c0.1-0.3,0.1-0.6,0.2-0.9c0-0.2,0.1-0.3,0.2-0.5
				c0.1,0.1,0.3,0.3,0.4,0.5c0.1,0.3,0.2,0.7,0.3,1c0.1-0.3,0.2-0.6,0.2-0.9c0.1-0.4,0.2-0.8,0.3-1.2c0.1,0.4,0.3,0.7,0.4,1.1
				c0.1,0.2,0.1,0.3,0.1,0.5c0-0.2,0.1-0.4,0.1-0.7c0.1-0.5,0.3-0.9,0.4-1.4c0.1,0.5,0.3,1.1,0.4,1.6c0.2,2-1,2.2-2.7,1.9v0
				c-1.3,0.2-2.5-0.2-2.9-1.8c0-0.2,0.2-0.5,0.4-0.7C33.8,99.7,34.3,100.2,35.1,99.8z M32.6,96.4c0.3,0.2,0.7,0.4,1.1,0.7
				c-0.2,0.4-0.3,0.6-0.4,0.8c-0.3-0.2-0.7-0.5-0.9-0.8C32.3,97,32.5,96.6,32.6,96.4z M25.2,94.2c0.4,0.5,0.7,0.9,1.1,1.5v0h0
				c-0.3,0.2-0.7,0.3-0.7,0.3c-0.3-0.5-0.6-0.9-0.9-1.4C24.7,94.5,25,94.3,25.2,94.2z M22.2,90.2c0.2-0.4,0.5-0.6,0.9-1.1
				c0.2,0.6,0.4,1,0.3,1.1c-0.2,0.3-0.6,0.5-0.9,0.7C22.4,90.6,22.1,90.3,22.2,90.2z M28.1,100.2c0.5,0.7,1,1.5,1.5,2.2
				c0.1,0.2,0.2,0.4,0.3,0.5c-0.2,0-0.3,0.1-0.5,0.1c-1.9,0.1-6.3-3.3-6.6-5.1c-0.1-0.6,0-1.2,0.1-1.8c0-0.2,0.8-0.4,0.9-0.3
				c1.2,1.5,2.6,0.5,4,0.3c0.2,0.2,0.5,0.3,0.8,0.5h0c0.6-0.3,1.2-0.5,1.9-0.8c0.4-0.2,0.8-0.4,1.2-0.6c0.1,0.4,0.2,0.8,0.2,1.2
				c0.1,1.2,0.2,2.4,0.2,3.6c0.1,1.7-0.4,2-1.8,1.2C29.6,100.8,28.8,100.5,28.1,100.2z"/>
			<path class="st0" d="M101.7,40.1c-0.8,0.8-0.9,1.4-0.2,2.5c4.1,6.1,8.5,7.4,15.2,4.4c0.4-0.2,0.8-0.3,1.2-0.5l0.1,1.4
				c0.5-0.1,1.3,0.1,1.5-0.2c0.3-0.4,0.2-1.2,0.3-1.8c-0.4,0.1-0.9,0.2-1.3,0.3c-0.2,0.1-0.5,0.2-0.7,0.4c0.3-0.4,0.6-0.9,1-1.2
				c3.3-2.4,4.6-6,6.1-9.5c1-2.4,0.6-4.9-0.8-6.9c-1.8-2.6-4-5.1-6.2-7.3c-2.5-2.4-5.7-2.8-9-2.5c-2.4,0.2-3.9,2.1-5.6,3.5
				c-0.3,0.2-0.5,0.4-0.8,0.6c0.1-0.4,0.1-1,0.3-1.1c1.7-1.4,3.5-2.7,5.3-4c1-0.7,2.6-2,3-1.7c2.6,2.1,6.6,1.5,8.8,4.4
				c1.8,2.4,3.6,4.9,5,7.5c0.8,1.6,1.3,2.8,3.3,3.1c2.2,0.3,3.3,2,3.8,4c0.2,0.9,0.4,1.9,0.6,2.8c0.9-0.2,1.8-0.6,2.8-0.7
				c1.3-0.2,2.7-0.1,4-0.2l-0.1-0.1c-0.9,0.7-1.5,1.7-2.9,0.8c-0.7-0.5-0.7-0.2-0.9,1.1c-0.1,0.6-1,1-1.4,1.6
				c-0.3,0.5-0.4,1.1-0.6,1.7c0.5,0,1.2,0.2,1.6,0c2-0.9,3.9-1.8,5.8-2.8c2.5-1.2,4.9-2.4,7.5-3.3c-0.3,0.1-0.6,0.1-0.9,0.3
				c-0.6,0.3-1.2,0.8-1.8,1.1c0.5,0.4,1,0.8,1.5,1.3c0.9,0.9,2,1.6,2.6,2.7c2.3,4.1,4.9,8.1,4.7,13.2c0,0.9,0.7,2,1.4,2.6
				c1.9,1.8,2.4,4.1,2.7,6.5c0,0.3-0.4,0.8-0.5,1.2c-0.1-0.3-0.1-0.8-0.4-1c-0.3-0.3-0.7-0.5-1-0.5c-1.9,0.3-3.8,0.6-5.8,0.6
				c1.4-0.2,2.9-0.4,4.3-0.7c0.3-0.1,0.6-0.3,1-0.4c-0.3-0.3-0.6-0.8-0.9-0.8c-1.9-0.1-3.7-0.1-5.6-0.2c-0.9-0.1-1.9-0.3-2.8-0.5
				l0,0l3.7,0.4c1.9,0.2,3.9,0.2,5.8,0.7c1.4,0.3,1.2-0.2,1-1c-0.7-2.8-4-4.6-7.2-4c-3.7,0.7-7.4,1.1-11,2.2
				c-0.8,0.2-1.5,0.5-2.3,0.4c-0.6,0-1.4-0.2-1.9,0c-0.8,0.4-1.4,1.1-2.1,1.7c0.4,0.4,0.8,0.8,1.2,1.1c1.7,1.1,3.3,2.5,5.2,3.1
				c3.5,1,7.1,1.7,10.7,2.2c1.5,0.2,3.1-0.6,4.7-0.9c0.8-0.2,1.7-0.3,2.5-0.5l0,0c-0.8,0.4-1.5,0.8-2.3,1.1c-2.3,1-4.7,1.6-7.3,1
				c-2.3-0.6-4.7-0.9-7.1-1.4c-1-0.2-1.4,0-1,1.1c0.1,0.3,0.2,0.7,0.3,1c1.3,3.5,0.8,5.3-2.1,7.7c-0.5,0.4-1,0.8-1.5,1.1
				c-2.1,1.3-3.7,3.9-6.8,2.4c-3.8-1.8-6.5-4.5-6.4-9c0-1.4-0.1-2.1-1.7-1.6c0.8-0.7,1.6-1.4,2.3-2.1c0.2-0.2,0.3-0.6,0.5-0.9
				c-0.4-0.1-0.8-0.2-1.2-0.2c-1.7-0.1-3.5,0-5.2-0.1c-0.7,0-1.4-0.3-2.1-0.5c-0.2,0-0.6,0-0.7,0.2c-0.1,0.1,0,0.6,0.1,0.7
				c1.9,1.5,3.4,3.8,6.4,2.9c-1.3,1.3-2.8,1.3-4.1,0.2c-1.5-1.2-2.7-2.8-4.2-4.1c-0.6-0.6-1.5-0.9-2.2-1.3c-0.3,0.7-0.7,1.4-0.8,2.2
				c-0.6,4.6-1.8,9.1-4.7,12.6c-1.8,2.2-2.3,4.1-1.9,6.8c0.4,2.5-2.3,4.8-5.1,4.6c-3.3-0.2-6.6-0.7-9.8-1.1
				c-0.9-0.1-1.8-0.4-2.6-0.7c-3.2-1.3-5.5-3.2-5.8-7c-0.1-1.6-0.6-3.1-2.5-3.6c-1.9-0.5-2.9-0.1-3.1,1.9c-0.1,0.9,0,1.8-0.1,2.7
				c-0.2,2.7-1.3,4.8-3.9,5.9c-0.4,0.2-0.8,0.4-1.2,0.6c-1.6,0.7-3.7,1-4.7,2.2c-1,1.1-0.5,3.4-1.2,4.8c-1.1,2.2-2.6,4.2-4.2,6
				c-1.2,1.4-3,2.2-4.4,3.5c-0.4,0.4-0.6,1.2-0.6,1.8c-0.2,1.4-0.1,2.9-0.5,4.2c-0.3,0.9-1.5,1.6-2.2,2.4l0.1,0.1
				c0.6-1.4,1.5-2.9,1.7-4.4c0.5-2.8,0-3.2-2.6-2.2c-2.8,1-5.6,1.5-8.5,1.2c-3.3-0.4-5.2-2.2-5.5-5.8c2.1,4.3,5.5,4.9,9.4,4.4
				c4.6-0.6,8.7-2.5,12.5-5.2c3.8-2.8,4.9-6.7,4.5-10.9c-0.4-3.9-1.7-7.7-3-11.4c-1.8-5.6-7.9-8.3-13.4-7.2
				c-2.7,0.6-5.2,1.8-6.2,4.5c-0.8,2.1-1.3,4.2-1.8,6.4c-0.5,2.3-0.7,4.7-2.1,6.1c0.7-2.7,1.4-5.8,2.1-8.9c0.9-3.5,1.9-7.2,5.7-8.5
				c2.9-1,3.5-2.9,3.5-5.5c0-1.2,0-2.3,0-3.5c0-4.7-3.2-7.2-7.6-5.6c-2.2,0.8-4.3,2.1-6.3,3.5c-2.6,1.8-2.6,2.2-0.8,4.8
				c1.7,2.4,2.4,4.9,0.9,7.7c-1.5,2.8-2.7,5.8-4.1,8.7c1-2.8,2.3-5.6,3.6-8.3c1-2.1,0.6-4.1-0.7-6c-2.7-4-6-6.4-11-5
				c-0.3,0.1-0.7,0-1.1,0.1c-4.6,1.3-9.4,2.3-12.9,6.1c-0.9,0.9-2,1.6-3,2.3l0.1,0c5.2-7.2,12.8-9.6,21.1-10.2
				c1.1-0.1,2.5,0.2,3.3,0.8c1.5,1.2,2.3,0.4,3.4-0.5c2.3-1.8,4.7-3.5,7.2-5c1.4-0.8,3.1-1.3,4.9-0.4c1.9,1,3.2,2.4,3.3,4.5
				c0.1,2.8,0.2,5.5,0,8.3c-0.1,1.5,0.1,1.9,1.5,1.8c0.5,0,1.1,0,1.6,0.1c1.1,0.1,1.1-0.4,0.8-1.2c-2.9-7.4,0.2-13.2,5.2-18.4
				c3.7-3.8,8.5-5,13.7-4.8c1.3,0,2.5,0.5,3.8,0.8l0-0.1c0.2,3.5,0.7,7,0.4,10.4c-0.2,2.9,1.2,5.2,1.8,7.7c0,0.2,0.3,0.5,0.5,0.6
				c1.3,0.3,2.6,0.9,3.8,0.7c0.5-0.1,0.7-2,1-3.1c0.2-0.8,0-1.6,0.2-2.4c0.6-2.6,0.8-5.4,1.9-7.7c1.2-2.5,1.6-4.6,0.8-7.2
				c-1-3.3-2.4-4-5.4-2.2c-1.2,0.8-2.5,1.5-3.8,2.2l0,0c1-2.7,3.2-3.8,5.7-4.2c0.9-0.2,2.2,0.5,3,1.2c1,0.7,1.2,0.3,1.4-0.5
				c0.5-2.3,0.8-4.5-1.7-6.1c-1.4-0.9-1.1-3.7,0.3-4.6c0,0,0.3,0.3,0.4,0.5c0.8,1.3,1.4,2.8,3.4,1.6c0.1-0.1,0.5,0.2,0.5,0.2
				c0,0.2-0.2,0.7-0.3,0.7c-1.5-0.1-2.1,1.4-1.8,1.8c0.8,1,0.7,3,2.6,2.8c-2.5,1.6-3.8,4.3-3.4,7c0.2,1.5,0.9,1.9,2.2,1.2
				c-0.1,0.3-0.2,0.7-0.4,0.9c-3.7,4.1-5.3,8.9-5.4,14.4c0,1.7-1.3,3.4-2,5.1c-0.2,0.5-0.7,1.2-0.5,1.4c0.4,0.6,0.7,1.9,1.9,0.9
				c0.9-0.8,1,0.1,1.2,0.6c0.1,0.3,0,0.8-0.2,1.1c-0.4,0.5-1,0.8-1.3,1.3c-0.3,0.5-0.4,1.2-0.6,1.8c0.8-0.1,1.7,0,2.3-0.3
				c0.7-0.3,1.1-1.2,1.7-1.6c1-0.7,2-0.7,2.9,0.3c0.9,1.1-0.4,1.4-0.8,2.1c-0.8,1.2-2.9,1.8-2.1,3.9c-1-0.3-1.9-0.7-2.9-0.8
				c-0.2,0-0.9,0.7-0.8,1c0.6,2.4,1.1,5,3.4,6.4c2.9,1.9,6.2,2.6,9.7,2.5c0.3,0,0.5-0.3,0.8-0.4c-0.2-0.2-0.3-0.4-0.5-0.6
				c-1.8-1-3.6-1.9-5.4-2.9c0.9,0.4,1.8,0.7,2.7,1.1c1.6,0.6,3.1,1.3,4.7,1.9c0.2,0.1,0.5-0.3,0.8-0.5c-0.3-0.2-0.5-0.4-0.8-0.6l0,0
				c0.9,0.4,1.9,0.8,2.8,1.3c1.9,1.3,3.5,0.7,3.8-1.6c0.1-0.9-0.1-1.8-0.1-2.7c-0.1-1.6-0.6-2.4-2.5-2c-3.1,0.6-6-0.1-8.7-1.8
				c-0.6-0.4-1.4-0.5-2.1-0.7l0,0.1c-0.1-0.3-0.2-0.7-0.3-0.9c-0.2-0.4-0.6-0.8-0.9-1.2c0.5,0.1,1,0.1,1.4,0.3
				c1.6,0.8,3.1,1.7,4.8,2.4c3.5,1.4,7.2,0.8,9.8-1.7c4.7-4.5,6.4-10.6,4.9-16.7c-1.6-6.7-6.5-11-12.8-13.8
				c-2.9-1.2-5.6-0.4-8.4,0.1c0.6-0.5,1.2-1.2,1.9-1.5c4-1.4,7.6-0.4,10.9,2c2.7,1.9,5.4,3.9,6.6,7.2c0.3,0.8,1.1,1.1,1.4,0
				c0.5-1.7,0.9-3.5,1-5.2c0.1-1.2-0.5-2.3-2-2.4c-3.1-0.3-5.1-2.2-6.4-4.8c-0.9-1.9-1.8-3.4-4.3-2.3c-0.6,0.2-1.4-0.1-2.1-0.2
				c-2-0.3-4-0.6-6-0.9c0.3-0.2,0.5-0.5,0.8-0.6c1.3-0.8,2-1.8,1.9-3.2l-0.1,0.1c1,0.8,2,1.8,3.1,2.5c1.9,1.2,3.2,1,4.8-0.6
				c0.7-0.7,1.3-1.5,2.2-1.9c1-0.5,2-0.1,2.3,1c0.3,0.8,0,1.4-1.1,1.1l0,0.1c-0.4-0.5-0.7-1.1-1.1-1.7c-0.5,0.6-1,1.2-1.6,1.8
				C100.7,40,101.2,40.1,101.7,40.1L101.7,40.1L101.7,40.1L101.7,40.1z M127.9,46.5c-0.2,0.2-0.4,0.3-0.5,0.5
				c-0.2,0.2-0.4,0.3-0.6,0.5c-0.5,0.2-1,0.5-1.4,0.7l4.3-4.4c-0.1,0.2-0.2,0.5-0.2,0.8c0,0.4,0,0.8-0.1,1.1
				c0.3-0.1,0.6-0.1,0.9-0.2c0.3-0.1,0.6-0.4,0.9-0.5c0.9-0.2,1.8-0.3,1.5-1.6c-0.4-1.5-1.4-0.4-2.1-0.6c1.8-2.6,0.6-7.8-2.1-9.6
				c-0.3-0.2-0.6-0.3-1-0.5c-1-0.5-1.5-0.5-1.9,0.9c-0.7,3-1.3,6.1-3.5,8.5c-2,2.2-1.1,5-1.6,7.5c-0.2,1,0.5,1.7,1.7,0.7
				c1-0.8,2.1-1.5,3.2-2.3c-0.5,0.6-1.1,1.3-1.6,1.9c-0.1,0.1-0.3,0.3-0.5,0.4c-0.8,0.6-2.1,1-1.5,2.3c0.6,1.3,1.6,0.8,2.4,0.2
				c0.1,0.6,0,1.5,0.4,1.8c1.7,1.4,3.5,2.7,5.4,3.9c1.5,0.9,1.9,0.6,2.1-1.2c0.3-2.9,0.6-5.8,0.9-8.7c0.1-0.6,0.2-1.2,0.3-1.8
				c0-0.4-0.1-0.8-0.2-1.2c-0.4,0.2-0.8,0.3-1.1,0.5c-1.3,1-2.6,2-3.9,3.1c-0.1-0.2-0.3-0.3-0.4-0.4c0,0.1,0,0.3,0,0.4
				c-1.2,0.6-2.5,1.2-3.7,1.7c0.2-0.2,0.4-0.4,0.5-0.5c1-0.8,1.9-1.7,2.9-2.5c0.2-0.2,0.4-0.3,0.6-0.5c0.2-0.2,0.5-0.4,0.7-0.6
				c0.1-0.3,0.2-0.5,0.3-0.8C128.5,46.2,128.2,46.3,127.9,46.5L127.9,46.5L127.9,46.5z M78.5,76c-0.1,0.7-0.2,1.4-0.2,2.1
				c0,0,0.3,0.1,0.4,0.1c-0.1-0.7-0.1-1.4-0.2-2.1C78.6,76.1,78.5,76,78.5,76c0.2-0.1,0.5,0,0.8,0l0-0.2C79,75.8,78.8,75.9,78.5,76
				L78.5,76L78.5,76z M63.6,85.8c0,1-0.1,2,0,2.9c0.2,1.3,0.9,0.7,1.5,0.3c-0.1,0.2-0.3,0.5-0.3,0.7c-0.2,0.7-0.3,1.4-0.5,2.1
				c0.7-0.1,1.3-0.2,2-0.4c4.5-1.5,7.6-4.2,7.2-9.5c0-0.3,0.2-0.5,0.1-0.8c-0.1-0.6-0.2-1.1-0.3-1.6c-0.5,0.3-1.1,0.6-1.4,1
				c-0.7,0.8-1.3,1.7-1.9,2.5c-0.1-0.3-0.1-0.6-0.2-0.9c-0.3,0.4-0.6,0.8-0.9,1.2c0.4-0.1,0.8-0.2,1.2-0.3c-0.4,0.8-0.8,1.5-1.1,2.3
				c0-0.7,0.1-1.5,0.2-2.2c-0.5,0.2-1.1,0.3-1.6,0.5c0.6-0.8,1.2-1.6,1.9-2.3c2.1-2.3,2.2-2.8,0.4-5.3c-0.8-1.1-1.4-2.3-2.4-3.2
				c-1.1-0.9-0.3-1.2,0.3-1.4c1.5-0.5,2.5,0.2,3.5,1.2c0.6,0.6,1.3,2.8,2.2,0.1c0-0.1,1.2-0.2,1.6,0.1c0.7,0.4,1.1,1.2,1.7,1.6
				c1.3,1,3.9,0.2,3.7-1.1c-0.2-1.6-0.8-3.3-1.5-4.8c-0.5-1-2.2-0.7-2.6,0.3c-0.1,0.4-0.1,0.9-0.1,1.3c-0.2-0.4-0.5-0.9-0.7-1.4
				c-0.2-0.6-0.3-1.3-0.5-2c-0.9-2.4-1.1-4.7-0.9-7.3c0.3-2.7,0-5.5-0.2-8.3c-0.1-1.3-0.8-2.5-2.3-2.6c-2.9-0.2-5.9-0.6-8.7,0.8
				C55.4,53.3,50.3,60.7,52.6,70c0.3,1.3,1.1,2.7,2.1,3.6c2.8,2.3,5.3,4.8,6.8,8.1c0.6,1.4,1.7,2,3.2,2.1c1,0,1.9-0.1,2.9-0.1
				c-1.1,0.6-2.3,1.2-3.4,1.7c-0.3-0.1-0.7-0.3-1-0.4C63.3,85.2,63.5,85.5,63.6,85.8L63.6,85.8L63.6,85.8z M119.9,53.1
				c0.3-1.7-0.1-2.9-1.8-3.7c-1.9-0.9-3.4-0.7-4.9,0.5c-2.6,2-3,5.2-3.9,8c-0.4,1.1,0.8,1.7,2,1.2c0.6-0.2,1.1-0.5,1.7-0.8
				c-0.6,0.5-1.1,1.2-1.8,1.5c-1.7,0.8-1.3,2.1-1,3.5c0,0.2,0.5,0.4,0.5,0.4c1.6-1.2,3.3-2.5,4.9-3.8c-0.5,0.6-1.2,1.1-1.6,1.7
				c-0.2,0.4,0,1,0,1.5c-0.7,0.3-1.5,0.5-2.2,0.8c0.7,0.5,1.2,1.2,2,1.4c4.2,1.4,8.4,2.8,12.5-0.1c-0.3,0.5-0.6,1.1-0.9,1.6
				c-1.9,2.3-2.3,4.8-1.5,7.7c1,3.3,3.5,4.8,6.2,6.1v-0.1c0.8,0,1.9,0.3,2.5-0.1c1.8-1.1,3.6-2.3,5.1-3.7c2.6-2.5,2.1-7.7-0.9-9.8
				c-1.5-1.1-3-2.1-4.6-3.1c-0.6-0.4-1.4-0.4-2.2-0.6c0.4-0.5,0.9-1,1.3-1.6c0.2-0.2,0.1-0.6,0.2-0.9c-0.2,0-0.5-0.2-0.7-0.1
				c-0.4,0.1-0.8,0.3-1.2,0.4c0.7-1,0.2-1.6-0.7-2.1c-1.2-0.7-2.4-1.5-3.5-2.4c-1.5-1.3-2.9-1.7-4.5-0.3
				C122.2,54.1,122.2,53.9,119.9,53.1L119.9,53.1L119.9,53.1z M137.3,60c3.1-0.8,6.2-1.5,9.3-2.3c1.6-0.4,3.3-0.9,4.9-0.9
				c1.5-0.1,2.1-0.7,2-2.1c-0.2-5.4-2.5-10-6-13.9c-1.8-2.1-3.8-2.1-6.3-0.7c-1.7,0.9-3.4,1.9-5.1,2.9c-1.2,0.7-1.8,1.5-1.6,3
				c0.2,1.3-0.3,2.6-0.5,3.9c-0.3,1.8-0.8,3.7-0.9,5.5C132.9,59,133.6,59.6,137.3,60L137.3,60L137.3,60z M75.1,74.5
				c-0.2,0-0.4,0.1-0.5,0.1c-0.1,0.7-0.4,1.4-0.3,2.1c0,0.5,0.5,1,0.7,1.4c0.4-0.5,1.1-1,1.1-1.4C75.9,76,75.4,75.3,75.1,74.5z
				 M112,50.1c-0.3-0.3-0.4-0.6-0.5-0.6c-0.2,0-0.5,0.1-0.6,0.3c-0.1,0.2,0.1,0.4,0.1,0.7C111.3,50.4,111.6,50.3,112,50.1L112,50.1
				L112,50.1z M84.6,78c-0.2-0.4-0.4-0.6-0.6-0.9c-0.2,0.2-0.6,0.3-0.6,0.4c0,0.3,0.2,0.6,0.4,0.8C83.9,78.3,84.3,78.1,84.6,78
				L84.6,78L84.6,78z M77.7,77.2c-0.2-0.4-0.3-0.7-0.4-0.9c-0.1,0.2-0.3,0.3-0.3,0.5c0,0.2,0.1,0.5,0.2,0.7
				C77.3,77.4,77.5,77.3,77.7,77.2C77.7,77.2,77.7,77.2,77.7,77.2z"/>
			<path class="st0" d="M189.9,47c-1.7,3.4-4.8,5.3-8.1,6.5c-2.8,1-7.5-2-8.6-5.1c-0.4-1.2-1-1.9-2.2-2.5c-2-1-3.5-2.6-4.8-4.5
				c-1.1-1.7-2.6-3.2-4-4.6c-0.5-0.5-1.3-0.8-1.9-0.8c-2.9,0-5.9,0.1-8.8,0.2c-1.1,0.1-1.3,0.1-0.3-0.6c-0.6-0.2-1.2-0.3-2.1-0.5
				c1-0.2,1.9-0.5,2.8-0.6c0.6-0.1,0.6-0.1,1,0.7c0.1,0.2,0.4,0.3,0.6,0.3c2.9,0,5.9,0,8.8-0.5c-1.7-0.2-3.4-0.4-5.1-0.6
				c-2.4-0.3-0.1-0.4,0-0.6c-0.3-0.2-0.5-0.5-0.8-0.5c-3.3-0.4-6.6,0-9.7,1.3c-2.5,1-5,2-7.4,3l0.1,0.1c6.3-3.7,12.9-6.2,20.4-4.7
				c2.1,0.4,4.3-0.4,6.5-0.6l0-0.1c-1.8,0.7-3.6,1.3-5.6,2c1.6,0.2,3,0.4,4.4,0.3c0.6,0,1.2-0.5,1.8-0.8c0.5,0.2,1.1,0.4,1.6,0.6
				l-0.1-0.1c-1.2,0.7-2,1.2-0.4,2.6c1.2,1.1,2,2.7,3,4.1c1.4,2.2,2.4,2.1,4,0.1c3.4-4.4,9.2-6.1,14.3-3.2c3.6,2,3.9,7.1,0.7,9.2
				c0.2-0.4,0.6-0.8,0.6-1.2c-0.1-0.7-0.3-1.5-0.8-2c-0.2-0.2-1.2,0.3-1.8,0.4c-0.1,0-0.1,0.1-0.2,0.2c-0.5,0.3-0.9,0.7-1.4,1
				c0.2-0.5,0.3-1,0.5-1.4c0.7-1.2,0.4-2-0.7-2.7c-0.6-0.4-1.1-1-1.6-1.4c-2.7-2.1-5.7-2.2-7.9-0.4c-2.5,2-3.3,5.8-1.8,8.7
				c1,2,2.1,2.5,4.1,1.5c1.8-0.8,3.5-1.8,5.2-2.8c0.2-0.1,0.6-0.1,0.9-0.2c-0.2,0.2-0.3,0.5-0.5,0.6c-1.6,1-3.3,2.1-5,3.1
				c-0.3,0.2-0.6,0.5-0.9,0.8c0.4,0.2,0.7,0.5,1.1,0.7c1.7,0.7,3.4,0.7,4.8-0.4C186.3,50.3,188,48.6,189.9,47
				C189.8,47,189.9,47,189.9,47z M164.5,35.2c-0.3,0.2-0.8,0.3-0.8,0.5c0,0.4,0,0.9,0.3,1.2c1.6,1.9,3.1,3.8,4.8,5.6
				c0.9,1,2,1.8,3.1,2.5c0.3,0.2,0.9-0.1,1.3-0.2c-0.2-0.4-0.3-1.2-0.5-1.3c-1.8-0.3-2.2-1.9-3.1-3c-1.3-1.6-2.6-3.1-4-4.6
				C165.3,35.6,164.8,35.4,164.5,35.2L164.5,35.2L164.5,35.2z M183.1,37.3c-0.2,0-0.6,0-1,0.1c-0.1,0-0.2,0.2-0.4,0.3
				c0.1,0.1,0.2,0.3,0.3,0.3c2.3,0.3,3.9,1.7,5.4,3.2c0.2,0.2,0.6,0.2,1,0.2c0-0.3,0.1-0.7,0-1C187.6,38,185.6,37.5,183.1,37.3
				L183.1,37.3L183.1,37.3z M189,41.7c0.4,0.5,0.8,0.9,1.2,1.3c0.2-0.2,0.6-0.5,0.5-0.5c-0.3-0.7-0.7-1.4-1.1-2
				C189.6,40.8,189.4,41.1,189,41.7L189,41.7z"/>
			<path class="st0" d="M77.2,39.8c-4,4.3-8.9,3-13.7,0.7c-3.4-1.5-4.8-4.4-4.7-8.1c0-1.5,0.5-2.6,2.4-3c1.3-0.2,2.5-1.2,3.7-2
				c1.5-1,2.8-2.2,4.8-2c0.4,0,1.1-0.8,1.1-1.2c0.5-3.3,1.1-6.5,1.1-9.8c0-1.6,0.7-2.1,1.6-2.9c4.1-3.2,8.5-5.4,13.8-6.2
				c4.1-0.6,7.7,0,10.6,2.9c1.4,1.4,2.4,1.2,3.8,0.1c1-0.8,2.3-1.4,3.5-1.9c2.9-1.1,5.1,0,6.1,3c0.2,0.7,0.4,1.4,0.4,2.1
				c0,1-0.1,1.9-0.1,2.9c-0.2-0.9-0.3-1.7-0.5-2.6c-0.1-0.5-0.3-1-0.5-1.5c-0.8-1.8-1.9-3.4-4-3.5c-2.4-0.1-4.3,1-5.8,2.8
				c-0.4,0.5-0.3,1.5,0,2.2c1.1,3.4,0,6.2-2.2,8.9c-1.9,2.3-3.6,4.7-5.5,6.9c1.7-2.3,3.3-4.8,5.1-7c2.7-3.2,3.1-6,0.3-9.3
				C97,9.6,95,8.2,93,6.8c-0.7-0.5-1.9-0.7-2.8-0.6C85,6.9,79.8,7.7,75.4,11.1c-2,1.5-3,3.3-3.1,5.6c-0.1,2.2-0.2,4.5-0.3,6.7
				c-0.1,3.9,2.3,6.9,6.8,8.7c0.6,0.2,1.1,0.6,1.6,1c-0.6,0-1.3,0.1-1.8-0.1c-2.8-1.1-5.8-2-7.2-5.2c-0.6-1.4-2.7-1.8-4.2-1
				c-1.2,0.6-2.2,1.5-3.3,2.2c-0.6,0.4-1.1,0.9-1.7,1.2c-0.7,0.4-2,0.6-2.1,1.1c-0.3,0.8,0.1,1.9,0.4,2.8c0.9,2.9,2.8,4.8,5.7,6
				C70,41.9,73.9,42.2,77.2,39.8L77.2,39.8L77.2,39.8z"/>
			<path class="st0" d="M179.8,13.7c0.1,2,0.1,4.1,0.2,6.1c0.1,1.5,1,2.1,2.5,2.1c3.6,0.1,7-0.7,10.2-2.5c-3.8,2.4-7.9,3.4-12.4,3
				c-0.2,0-0.6-0.3-0.6-0.5c-0.3-1.5-0.8-3-0.6-4.5c0.3-2.4-1.3-3.6-2.8-4.7c-2.6-2-3.5-4.5-2.3-8.2c0.7-2.3,3.7-4.5,6.1-4.5
				c3.8,0,6.4,4.8,4.4,8.2c-1.1,1.9-2.8,3.4-4.3,5.1c0.6-0.6,1.3-1.2,1.8-1.9c1.4-1.8,3.1-3.6,2-6.2c-0.4-0.9-0.8-1.8-1.5-2.5
				c-0.5-0.6-1.4-1.7-2.1,0c-0.6-0.6-1.1-1.2-1.7-1.7C178.7,0.8,178.3,1,178,1c-1.8,0.7-3,1.8-3.1,3.9c-0.1,2.5-0.4,5.1,1.9,6.9
				c1,0.8,0.8-0.3,0.9-0.9c0.3-1.7,0.5-3.4,0.8-5.1l-0.1-0.1c0,2,0.1,4,0.1,6C178.5,12.7,178.7,13.5,179.8,13.7L179.8,13.7
				L179.8,13.7z"/>
			<path class="st0" d="M170.5,30c1.8-1.4,3.6-2.8,5.4-4.2l-0.1-0.1c-0.1,0.2-0.3,0.5-0.4,0.7c-0.1,0.3-0.2,0.5-0.3,0.8
				c0.2-0.1,0.5-0.3,0.8-0.4c4.2-1.1,8.5-2.1,12.7-3.2c2-0.5,3.9-0.8,5.9-1.2c0.2,0,0.5,0.2,0.7,0.3c-0.2,0.1-0.5,0.2-0.7,0.2
				c-4.6,0.8-9.3,1.5-13.8,2.6c-1.7,0.4-3.1,1.9-4.6,3c-1.6,1.1-3.1,2.3-4.7,3.4l0.1,0.1c-0.4-0.2-0.8-0.4-1.1-0.5
				c0.5-0.4,0.9-0.9,1.4-1.3c0.3-0.2,0.6-0.5,0.9-0.7c0.2-0.1,0.4-0.3,0.7-0.4c0.2-0.1,0.4-0.3,0.6-0.5c0.2-0.4,0.5-0.8,0.7-1.1
				c-0.4,0.2-0.8,0.4-1.2,0.6c-0.2,0.1-0.4,0.3-0.6,0.5c-0.2,0.1-0.4,0.3-0.6,0.4c-0.3,0.2-0.6,0.5-0.9,0.7
				C171.1,29.8,170.8,29.9,170.5,30L170.5,30L170.5,30L170.5,30z"/>
			<path class="st0" d="M20.5,99.1c-1.3,2.3-3.6,3.2-6,3.9c-4.4,1.3-8.5,0.4-12.2-1.9c-1.5-0.9-2.5-2.4-2.2-4.3
				c0.3-1.9,1.6-3,3.4-3.5l-0.1-0.1c-0.5,1.4-3.3,1.7-2.1,3.8c0.8,1.4,2.1,2.6,3.2,3.8c0.3,0.3,1,0.4,1.5,0.6
				C11.3,103.6,16.1,102.3,20.5,99.1L20.5,99.1L20.5,99.1L20.5,99.1z"/>
			<path class="st0" d="M4,92.8c0-1.1,0.3-2.2,0.1-3.2C3.3,84.9,2,80.1,3.5,75.3c0.2-0.8,0.7-1.6,1-2.4l-0.1,0
				C2.8,78.7,3.3,84.4,5.6,90c1.8,4.5,5.6,6,10.1,4.1c0.9-0.4,1.7-0.8,2.6-1.2c-1.4,1.1-2.8,2.3-4.5,2.6c-2,0.4-4.2,0.2-6.3-0.1
				c-0.8-0.1-1.3-1.5-2.1-2.2C5.1,92.9,4.5,92.9,4,92.8L4,92.8L4,92.8L4,92.8z"/>
			<path class="st0" d="M87.7,30.5c-0.3,0-0.7,0-1,0.1v-1.4c-0.1,0-0.4,0-0.5,0c-0.9,0.8-3.3-0.5-3,2.1c0,0.3-0.2,0.7-0.3,1
				c-0.1-0.3-0.4-0.6-0.4-1c0-0.5,0.1-1.1,0.2-1.6c0.1-0.4,0.5-0.9,0.5-1.2c-0.1-0.7-0.5-1.4-0.8-2c0.7,0.3,2,1,2.1,0.9
				c1.1-1.8,2.4,0.7,3.4-0.2c0.3-0.2,0.9-0.2,1.1-0.5c0.5-0.5,1-0.5,1.3,0.2c0.1,0.2,0.1,0.5,0.1,0.7c-0.2,0-0.6,0.1-0.7,0
				c-0.9-1.2-1.5-0.3-2,0.4c-0.8,1,0.2,1.1,0.8,1.4c-0.1,0.2-0.3,0.5-0.4,0.7c-0.4-0.3-0.7-0.6-1.1-1C87.3,29.6,87.5,30.1,87.7,30.5
				L87.7,30.5L87.7,30.5z M83.6,27.2c0.5,0.3,0.7,0.5,1,0.6c0.1,0,0.5-0.4,0.5-0.4c-0.1-0.3-0.3-0.6-0.5-0.7
				C84.4,26.7,84.1,27,83.6,27.2L83.6,27.2L83.6,27.2z"/>
			<path class="st0" d="M100.8,28.4c0-0.1,0,0.1-0.1,0.3c-0.8,1.5-2,2.7-1.1,4.7c0.4,0.9-0.5,2.2-2,2.3c-0.2,0-0.5-0.6-0.7-0.9
				c0.3-0.1,0.5-0.4,0.8-0.3c1.3,0.2,1.9-0.2,1.4-1.2c-0.3-0.8-1.1-1.3-1.7-2c-0.1-0.2-0.2-0.6-0.2-0.6c0.6-0.3,1.3-0.4,1.9-0.8
				C99.8,29.4,100.3,28.8,100.8,28.4L100.8,28.4L100.8,28.4z"/>
			<path class="st0" d="M176.9,24.6c0.1-0.9,0.4-1.8,0.3-2.8c-0.1-2.1-0.3-4.2-0.5-6.3c0.2,0,0.5,0,0.8-0.1c0,0.9-0.1,1.8,0,2.7
				c0.1,1.1,0,2.5,0.6,3.4C179.5,23.5,178.6,24.1,176.9,24.6L176.9,24.6L176.9,24.6L176.9,24.6z"/>
			<path class="st0" d="M195.8,10.4c-0.2,2.4-0.4,4.9-0.6,7.3c-0.2,0-0.5,0-0.7,0c0.3-2.4,0.5-4.9,0.8-7.3
				C195.5,10.4,195.6,10.4,195.8,10.4L195.8,10.4L195.8,10.4z"/>
			<path class="st0" d="M140.7,63.6l6.9,1.3l0,0.1C145.3,64.5,143,64.1,140.7,63.6L140.7,63.6L140.7,63.6L140.7,63.6z"/>
			<path class="st0" d="M93.4,33.6c-0.2,0.1-0.6,0.5-0.8,0.4c-0.7-0.4-1.3-0.9-1.9-1.3c0.2-0.1,0.4-0.4,0.5-0.4
				C91.9,32.7,92.6,33.1,93.4,33.6L93.4,33.6L93.4,33.6z"/>
			<path class="st0" d="M106.3,40.2c0.4,0.4,0.9,0.7,0.8,0.8c-0.2,0.4-0.5,0.8-0.8,1.2c-0.2-0.2-0.6-0.5-0.6-0.7
				C105.7,41,106,40.7,106.3,40.2L106.3,40.2L106.3,40.2z"/>
			<path class="st0" d="M146.6,62c-1.8-0.2-3.5-0.4-5.3-0.6c-0.2,0-0.4,0-0.5,0c0,0,0-0.1,0-0.1c0.2,0,0.3,0,0.5,0
				C143.1,61.6,144.9,61.8,146.6,62L146.6,62L146.6,62z"/>
			<path class="st0" d="M166.2,32.2c1.1-0.5,2.1-1.1,3.2-1.6l0-0.1c-0.1,0.2-0.2,0.5-0.4,0.7c-0.3,0.2-0.6,0.3-1,0.5
				C167.4,31.8,166.8,31.9,166.2,32.2L166.2,32.2L166.2,32.2z"/>
			<path class="st0" d="M103.7,36.1c-0.2-0.5-0.5-0.8-0.4-0.9c0.2-0.3,0.5-0.6,0.8-0.7c0.1,0,0.4,0.4,0.7,0.6
				C104.5,35.4,104.2,35.7,103.7,36.1L103.7,36.1z"/>
			<path class="st0" d="M101.6,35.3c-0.3-0.3-0.5-0.5-0.5-0.6c0.1-0.3,0.3-0.5,0.4-0.8c0.2,0.1,0.5,0.3,0.5,0.4
				C102,34.6,101.8,34.9,101.6,35.3L101.6,35.3z"/>
			<path class="st0" d="M66.1,30.8c-0.4,0.1-0.6,0.2-0.8,0.2c-0.1,0-0.3-0.1-0.4-0.2c0.1-0.1,0.3-0.4,0.5-0.4
				C65.5,30.4,65.7,30.6,66.1,30.8L66.1,30.8L66.1,30.8z"/>
			<path class="st0" d="M73.3,33.1c-0.5,0.2-0.7,0.4-1,0.5c0,0-0.3-0.4-0.3-0.5c0.1-0.2,0.3-0.3,0.5-0.4
				C72.7,32.6,72.9,32.8,73.3,33.1L73.3,33.1z"/>
			<path class="st0" d="M102.8,32.1c-0.1,0-0.3,0.2-0.4,0.1c-0.1-0.1-0.1-0.3-0.2-0.4c0.1,0,0.3-0.1,0.4-0.1
				C102.8,31.8,102.8,32,102.8,32.1L102.8,32.1L102.8,32.1z"/>
			<path class="st0" d="M107.8,37.6c-0.1,0.1-0.1,0.3-0.3,0.3c-0.1,0-0.2-0.1-0.4-0.2c0.1-0.1,0.1-0.3,0.2-0.3
				C107.6,37.4,107.7,37.5,107.8,37.6z"/>
			<path class="st0" d="M140.7,63.6l-2.1-0.5l0,0C139.3,63.2,140,63.4,140.7,63.6L140.7,63.6z"/>
			<path class="st0" d="M171,32.6c-0.5,0.3-1,0.7-1.6,1l0,0.1c0.2-0.3,0.5-0.6,0.7-0.9C170.4,32.8,170.7,32.7,171,32.6L171,32.6
				L171,32.6L171,32.6z"/>
			<path class="st0" d="M74.3,48.8c0.4-0.4,0.7-0.8,1.1-1.1l0,0C75,48,74.6,48.3,74.3,48.8L74.3,48.8z"/>
			<path class="st0" d="M138.6,63.1c-0.2,0-0.3-0.1-0.5-0.1s-0.4,0.1-0.5,0.1l0-0.2c0.2,0.1,0.3,0.2,0.5,0.2
				C138.2,63.2,138.4,63.1,138.6,63.1L138.6,63.1L138.6,63.1L138.6,63.1z"/>
			<path class="st0" d="M91.6,37.4c-0.2-0.2-0.4-0.4-0.5-0.6c0,0,0.1-0.2,0.2-0.3C91.3,36.8,91.4,37.1,91.6,37.4L91.6,37.4
				L91.6,37.4L91.6,37.4z"/>
			<path class="st0" d="M169.4,30.5c0.4-0.2,0.8-0.4,1.1-0.5l-0.1-0.1C170.1,30.1,169.7,30.3,169.4,30.5L169.4,30.5L169.4,30.5z"/>
			<path class="st0" d="M169.4,33.7c-0.4,0.2-0.8,0.4-1.1,0.6l0.1,0.1C168.7,34.1,169.1,33.9,169.4,33.7L169.4,33.7L169.4,33.7
				L169.4,33.7z"/>
			<path class="st0" d="M102.8,39.6c-0.4,0.2-0.7,0.4-1.1,0.5l0.1,0.1C102.1,40,102.5,39.8,102.8,39.6L102.8,39.6z"/>
			<path class="st0" d="M135.7,62.4c0,0,0,0.1-0.1,0.1c-0.1,0-0.1,0-0.2,0c0,0,0-0.1,0.1-0.1C135.5,62.4,135.6,62.4,135.7,62.4
				L135.7,62.4L135.7,62.4z"/>
			<path class="st0" d="M3.5,93.4C3.6,93.2,3.8,93,4,92.8l-0.1-0.1L3.5,93.4L3.5,93.4L3.5,93.4L3.5,93.4z"/>
			<path class="st0" d="M171.5,32c-0.2,0.2-0.4,0.4-0.5,0.6l0.1,0.1C171.2,32.5,171.4,32.3,171.5,32C171.6,32.1,171.5,32,171.5,32z"
				/>
			<path class="st0" d="M176.4,25.1l-0.5,0.6l0.1,0.1C176.1,25.6,176.3,25.4,176.4,25.1L176.4,25.1L176.4,25.1L176.4,25.1z"/>
			<path class="st0" d="M176.9,24.5c-0.2,0.2-0.3,0.4-0.5,0.6l0.1,0.1C176.6,25,176.8,24.8,176.9,24.5L176.9,24.5L176.9,24.5z"/>
			<path class="st0" d="M156.8,67.3c-0.1-0.1-0.2-0.3-0.3-0.4c0,0.1,0.1,0.1,0.2,0.2C156.8,67.1,156.8,67.2,156.8,67.3L156.8,67.3
				L156.8,67.3z"/>
			<path class="st0" d="M22.9,86.1c0.2-0.3,0.5-0.6,0.7-1c0.2-0.4,0.5-0.8,0.7-1.2c0.3,0.5,0.8,0.9,0.8,1.4c0,0.3-0.7,0.7-1.2,0.9
				c-0.4,0.2-0.8,0.1-1.2,0.2c-0.4,0.1-0.8,0.2-1.2,0.3c0-0.2-0.2-0.6-0.1-0.6c0.3-0.2,0.6-0.3,1-0.5C22.6,85.8,22.7,86,22.9,86.1
				L22.9,86.1L22.9,86.1z M23.5,85.9l-0.2,0.2c0.1,0.1,0.2,0.1,0.4,0.2c0,0,0.1-0.1,0.2-0.2C23.7,86,23.6,85.9,23.5,85.9L23.5,85.9
				L23.5,85.9z"/>
			<path class="st0" d="M26.4,81.8c0.2-0.2,0.3-0.4,0.4-0.6c0.5,0.8,1,1.5,1.4,2.3c0,0.1-0.5,0.5-0.8,0.7
				C27,83.4,26.7,82.6,26.4,81.8L26.4,81.8L26.4,81.8z"/>
			<path class="st0" d="M18.1,90.9c-0.3-0.4-0.8-0.6-0.7-0.8c0.1-0.3,0.4-0.7,0.7-0.8c0.2-0.1,0.5,0.3,0.8,0.4
				C18.7,90.1,18.5,90.4,18.1,90.9C18.1,90.9,18.1,90.9,18.1,90.9z"/>
			<path class="st0" d="M37.7,93.7c-0.4,0.5-0.7,0.8-0.9,1.2c-0.3-0.2-0.6-0.5-0.9-0.7c0.3-0.3,0.5-0.6,0.8-0.8
				C36.9,93.2,37.3,93.5,37.7,93.7C37.7,93.6,37.7,93.6,37.7,93.7z"/>
			<path class="st0" d="M39.9,104.1c-0.3-0.2-0.5-0.3-0.7-0.4c0.2-0.1,0.4-0.3,0.6-0.4c0.1,0,0.3,0.1,0.4,0.2
				C40.2,103.7,40.1,103.9,39.9,104.1L39.9,104.1L39.9,104.1z"/>
			<path class="st0" d="M14.9,82.1c0.1,0.2,0.2,0.4,0.2,0.6c0,0.1-0.4,0.2-0.4,0.2c-0.1-0.2-0.2-0.4-0.3-0.6
				C14.5,82.2,14.7,82.2,14.9,82.1L14.9,82.1L14.9,82.1z"/>
			<path class="st0" d="M40.4,93.4c-0.3,0.2-0.5,0.3-0.7,0.3c-0.1,0-0.2-0.3-0.3-0.5c0-0.1,0.3-0.3,0.4-0.2
				C40,93,40.1,93.2,40.4,93.4L40.4,93.4L40.4,93.4z"/>
			<path class="st0" d="M21,83.4c-0.1,0.2-0.2,0.5-0.2,0.5c-0.2,0-0.4-0.1-0.6-0.2c0.1-0.1,0.1-0.4,0.2-0.4
				C20.6,83.3,20.8,83.4,21,83.4C21,83.4,21,83.4,21,83.4z"/>
			<path class="st0" d="M39.8,88.5c0.2,0.2,0.4,0.4,0.5,0.6c0,0.1-0.2,0.2-0.3,0.3c-0.2-0.2-0.4-0.3-0.5-0.5
				C39.5,88.9,39.6,88.7,39.8,88.5L39.8,88.5L39.8,88.5z"/>
			<path class="st0" d="M12.7,91c-0.1,0-0.3,0-0.5,0c0-0.1,0-0.2,0-0.2c0.1,0,0.3,0,0.4,0.1C12.7,90.8,12.7,90.9,12.7,91L12.7,91z"
				/>
			<path class="st0" d="M28.3,96.8c0.2,0,0.3-0.1,0.3-0.2c-0.1,0.3-0.1,0.6-0.2,0.9C28.4,97.2,28.4,97,28.3,96.8z"/>
			<path class="st0" d="M95.6,87.6c-0.2-0.3-0.4-0.6-0.5-0.8c-0.2-0.3-0.4-0.5-0.6-0.8c0.2,0.2,0.5,0.4,0.7,0.7S95.4,87.3,95.6,87.6
				L95.6,87.6L95.6,87.6L95.6,87.6z"/>
			<path class="st0" d="M91,75.6c-0.1,0.2-0.2,0.3-0.3,0.4c-0.1-0.2-0.3-0.3-0.4-0.5c0,0,0.2-0.3,0.3-0.3
				C90.7,75.3,90.9,75.5,91,75.6L91,75.6z"/>
			<path class="st0" d="M90.5,82.6c0.5,0.6,0.9,1.2,1.4,1.7l0.1,0.1L90.5,82.6L90.5,82.6L90.5,82.6L90.5,82.6z"/>
			<path class="st0" d="M86.7,71.4c0.4,0.6,0.6,0.9,0.6,1c-0.2,0.2-0.5,0.4-0.7,0.5c-0.1,0-0.5-0.3-0.4-0.4
				C86.2,72.2,86.5,71.9,86.7,71.4L86.7,71.4L86.7,71.4z"/>
			<path class="st0" d="M86.8,67.2c-0.2,0.4-0.3,0.6-0.4,0.9c-0.3-0.2-0.6-0.3-0.7-0.6c-0.1-0.1,0.2-0.6,0.3-0.6
				C86.2,66.9,86.5,67,86.8,67.2L86.8,67.2L86.8,67.2z"/>
			<path class="st0" d="M88.6,70.2c-0.5,0.2-0.7,0.4-0.9,0.4c-0.2,0-0.3-0.2-0.5-0.3c0.1-0.2,0.2-0.4,0.4-0.5
				C87.8,69.8,88,70,88.6,70.2C88.6,70.3,88.6,70.3,88.6,70.2z"/>
			<path class="st0" d="M86.6,60.6c0,0.1-0.1,0.3-0.1,0.4c-0.1-0.1-0.3-0.1-0.4-0.2c0.1-0.1,0.1-0.3,0.2-0.4
				C86.4,60.5,86.5,60.6,86.6,60.6L86.6,60.6L86.6,60.6z"/>
			<path class="st0" d="M85.5,68.6c-0.6,0.3-0.9,0.5-1,0.4c-0.2-0.1-0.3-0.3-0.5-0.5c0.2-0.1,0.3-0.3,0.5-0.3
				C84.8,68.2,85,68.4,85.5,68.6L85.5,68.6L85.5,68.6z"/>
			<path class="st0" d="M85.2,71.2c-0.2,0.3-0.3,0.4-0.4,0.6c-0.2-0.2-0.5-0.3-0.7-0.5c0.2-0.2,0.3-0.4,0.5-0.5
				C84.8,70.9,85,71.1,85.2,71.2L85.2,71.2L85.2,71.2z"/>
			<path class="st0" d="M86.7,84.2c-0.2-0.4-0.4-0.8-0.6-1.2C86.3,83.5,86.5,83.9,86.7,84.2z"/>
			<path class="st0" d="M85.1,82.1c-0.2-0.4-0.4-0.8-0.6-1.2C84.7,81.3,84.9,81.7,85.1,82.1z"/>
			<path class="st0" d="M95.5,87.6c0.2,0.2,0.4,0.5,0.6,0.7l0,0C96,88,95.8,87.8,95.5,87.6L95.5,87.6L95.5,87.6L95.5,87.6z"/>
			<path class="st0" d="M89.2,80.8c0.1,0.2,0.1,0.4,0.2,0.6v-0.1C89.3,81.2,89.3,81,89.2,80.8L89.2,80.8z"/>
			<path class="st0" d="M89.9,81.9c-0.2-0.2-0.4-0.4-0.5-0.6v0.1C89.6,81.6,89.7,81.8,89.9,81.9L89.9,81.9
				C89.9,81.9,89.9,81.9,89.9,81.9z"/>
			<path class="st0" d="M85.6,82.6c-0.2-0.2-0.4-0.4-0.6-0.6C85.2,82.2,85.4,82.4,85.6,82.6z"/>
			<path class="st0" d="M89.9,82c0.2,0.2,0.4,0.4,0.6,0.7l0.1-0.1C90.3,82.3,90.1,82.1,89.9,82L89.9,82C89.9,82,89.9,82,89.9,82z"/>
			<path class="st0" d="M86.2,83.2l-0.6-0.6L86.2,83.2z"/>
			<path class="st0" d="M87.2,84.8l-0.6-0.6L87.2,84.8z"/>
			<path class="st0" d="M91.9,84.4h0.2C92.1,84.4,92,84.4,91.9,84.4L91.9,84.4z"/>
			<path class="st0" d="M87.8,85.3l-0.6-0.6L87.8,85.3z"/>
			<path class="st0" d="M88.3,85.8c-0.2-0.2-0.4-0.4-0.6-0.6C87.9,85.4,88.1,85.7,88.3,85.8z"/>
			<path class="st0" d="M88.8,86.4c-0.2-0.2-0.4-0.4-0.6-0.6C88.4,86,88.6,86.2,88.8,86.4z"/>
			<path class="st0" d="M63.2,74.8c-0.5-0.3-0.9-0.5-0.9-0.7c0-0.2,0.3-0.7,0.5-0.7c0.2,0,0.6,0.2,0.8,0.5
				C63.6,74.1,63.4,74.4,63.2,74.8L63.2,74.8L63.2,74.8z"/>
			<path class="st0" d="M72.2,66.5c-0.5,0.2-0.8,0.5-1.1,0.6c-0.2,0-0.6-0.6-0.5-0.7c0.2-0.3,0.5-0.6,0.8-0.8
				C71.6,65.8,71.9,66.1,72.2,66.5L72.2,66.5z"/>
			<path class="st0" d="M69.8,68.9c-0.1-0.3-0.3-0.5-0.4-0.7c0.2-0.1,0.4-0.2,0.6-0.2c0.1,0,0.2,0.2,0.3,0.3
				C70.3,68.5,70.1,68.7,69.8,68.9z"/>
			<path class="st0" d="M67.5,66.5c-0.3,0.2-0.5,0.4-0.7,0.3c-0.1,0-0.3-0.3-0.3-0.5c0-0.1,0.2-0.3,0.3-0.3
				C67.1,66.1,67.2,66.3,67.5,66.5L67.5,66.5L67.5,66.5z"/>
			<path class="st0" d="M63.9,67.3c0.1,0,0.1,0.1,0.2,0.1c-0.1,0.1-0.1,0.2-0.2,0.3c0-0.1-0.1-0.1-0.1-0.2
				C63.8,67.4,63.9,67.4,63.9,67.3z"/>
			<path class="st0" d="M66.1,63c-0.1-0.1-0.3-0.2-0.3-0.2c0-0.1,0.1-0.2,0.1-0.4c0.1,0.1,0.3,0.2,0.3,0.2
				C66.2,62.8,66.1,62.9,66.1,63L66.1,63L66.1,63z"/>
			<path class="st0" d="M130.2,80.6c-0.3-2.2-0.5-4.4-1-6.6c-0.5-1.8-0.6-3.4,0.1-5.1c0.1-0.3-0.2-0.8-0.3-1.1c0-0.1-0.4,0-0.5,0
				c-0.1,0.4-0.4,0.8-0.3,1.2c0.9,3.3,0.6,7,2.3,10.1C130.8,79.4,130.4,80.1,130.2,80.6L130.2,80.6z"/>
			<path class="st0" d="M126.4,65.4c1.3-0.7,2.6-1.5,3.9-2.2C128.9,63.9,127.6,64.7,126.4,65.4z"/>
			<path class="st0" d="M98.8,45.2c-0.1,0.1-0.3,0.1-0.4,0.2c-0.1-0.2-0.1-0.4-0.2-0.6c0.1,0,0.3-0.1,0.4,0
				C98.7,44.9,98.7,45,98.8,45.2L98.8,45.2L98.8,45.2z"/>
			<path class="st0" d="M93.5,42.9c-0.3,0.2-0.5,0.3-0.7,0.3c-0.1,0-0.4-0.2-0.4-0.2c0.1-0.2,0.2-0.4,0.3-0.6
				C93,42.5,93.1,42.7,93.5,42.9L93.5,42.9L93.5,42.9z"/>
			<path class="st0" d="M130.2,43.3l-0.6,0.6L130.2,43.3z"/>
			<path class="st0" d="M130.8,42.8l-0.6,0.6L130.8,42.8z"/>
			<path class="st0" d="M125.4,63.8c-3.3,2-6.8,2-10.4,0.6c-0.4-0.2-0.7-0.8-1-1.2C117.8,64.9,121.6,64.9,125.4,63.8
				C125.4,63.8,125.4,63.8,125.4,63.8z"/>
			<path class="st0" d="M115.6,60c0.7-0.6,1.5-1.1,2.2-1.7C117.1,58.9,116.4,59.5,115.6,60z"/>
			<path class="st0" d="M118.9,57.9l1.1-1.1L118.9,57.9z"/>
			<path class="st0" d="M119.9,56.8c0.4-0.2,0.8-0.4,1.2-0.6C120.7,56.4,120.3,56.6,119.9,56.8z"/>
			<path class="st0" d="M117.8,58.4l1.2-0.6L117.8,58.4z"/>
			<path class="st0" d="M129.2,61.6c-0.4,0.2-0.8,0.4-1.2,0.6C128.4,62,128.8,61.8,129.2,61.6z"/>
			<path class="st0" d="M127.5,62.7c-0.4,0.2-0.8,0.4-1.2,0.6C126.8,63.1,127.2,62.9,127.5,62.7z"/>
			<path class="st0" d="M126.5,63.2c-0.4,0.2-0.8,0.4-1.2,0.6C125.7,63.6,126.1,63.4,126.5,63.2z"/>
			<path class="st0" d="M128.1,62.1c-0.2,0.2-0.4,0.4-0.6,0.6C127.7,62.5,127.9,62.3,128.1,62.1z"/>
			<path class="st0" d="M129.7,61.1c-0.2,0.2-0.4,0.4-0.6,0.6C129.3,61.5,129.5,61.3,129.7,61.1z"/>
			<path class="st0" d="M124.8,52.5l0.6-0.6L124.8,52.5z"/>
			<path class="st0" d="M125.3,52l0.6-0.6L125.3,52z"/>
			<path class="st0" d="M125.8,51.5l0.6-0.6L125.8,51.5z"/>
			<path class="st0" d="M126.4,50.9l0.6-0.6L126.4,50.9z"/>
			<path class="st0" d="M126.9,50.4l0.6-0.6L126.9,50.4z"/>
			<path class="st0" d="M127.5,49.3c0.2,0,0.4,0,0.6,0l-0.6,0.6C127.5,49.7,127.5,49.5,127.5,49.3L127.5,49.3L127.5,49.3z"/>
			<path class="st0" d="M124.2,53.1l0.6-0.6L124.2,53.1z"/>
			<path class="st0" d="M118.4,54.6c-0.7,0.6-1.5,1.1-2.2,1.7C116.9,55.7,117.7,55.2,118.4,54.6z"/>
			<path class="st0" d="M120,53c-0.6,0.6-1.1,1.1-1.7,1.7C118.9,54.1,119.5,53.6,120,53z"/>
			<path class="st0" d="M114.7,57.3c-0.6,0.4-1.1,0.8-1.7,1.2C113.5,58.1,114.1,57.7,114.7,57.3z"/>
			<path class="st0" d="M116.3,56.2c-0.6,0.4-1.1,0.8-1.7,1.1C115.1,57,115.7,56.6,116.3,56.2z"/>
			<path class="st0" d="M67.8,86.4l1.1-1.1L67.8,86.4z"/>
			<path class="st0" d="M66.8,87.4l0.6-0.6L66.8,87.4z"/>
			<path class="st0" d="M66.2,88c0.2-0.2,0.4-0.4,0.6-0.6C66.6,87.6,66.4,87.8,66.2,88z"/>
			<path class="st0" d="M65.7,88.5l0.6-0.6L65.7,88.5z"/>
			<path class="st0" d="M65.1,89.1l0.6-0.6L65.1,89.1z"/>
			<path class="st0" d="M67.3,86.9l0.6-0.6L67.3,86.9z"/>
			<path class="st0" d="M63.5,85.8c0.2-0.2,0.4-0.4,0.6-0.6C63.9,85.4,63.7,85.6,63.5,85.8z"/>
			<path class="st0" d="M168.5,32.3l1-0.6c0.3-0.1,0.7-0.1,1-0.2c-0.3,0.3-0.6,0.5-0.9,0.8c-1,0.5-2,1-3,1.4
				C167.3,33.3,167.9,32.8,168.5,32.3L168.5,32.3L168.5,32.3z"/>
			<polygon class="st0" points="178.5,5.8 178.6,5.7 178.4,5.8 			"/>
		</g>
	</g>
</g>
</svg>
