<?xml version="1.0" encoding="UTF-8"?>
<svg id="Layer_2" data-name="Layer 2" xmlns="http://www.w3.org/2000/svg" viewBox="0 0 342.5 701.2">
  <defs>
    <style>
      .cls-1 {
        fill: none;
        stroke: #000;
        stroke-linecap: round;
        stroke-linejoin: round;
        stroke-width: 2px;
      }
    </style>
  </defs>
  <g id="Layer_1-2" data-name="Layer 1">
    <g>
      <path class="cls-1" d="m205.89,359.42c3.78,15.41,7.54,30.82,11.34,46.22,1.46,5.91,3.28,11.69,5.82,17.25,1.15,2.52,2.63,5.37,2.42,7.95-1.03,12.48,3.25,23.98,6.09,35.71,3.8,15.71,7.84,31.39,11.51,47.12,5.85,25.08,11.99,50.09,17.93,75.15,2.6,10.96,4.66,22.09,8.3,32.8,1.36,3.99,2.85,7.9,5.39,11.39,2.23,3.06,1.91,6.87,2.15,10.47.61,8.89,2,17.63,5.04,26.05"/>
      <path class="cls-1" d="m223.52,427.08c-12.78-.63-23.94,3.13-33.79,11.82,6.84,8.57,8.13,18.55,10.73,28.09,5.04,18.5,8.84,37.29,13.18,55.95,4.16,17.86,8.35,35.74,12.05,53.72,2.58,12.54,6.05,24.9,8.61,37.44.86,4.21,3.86,8.38,1.39,13"/>
      <path class="cls-1" d="m264.67,97.64c-6.63-2.29-12.94-1.66-19.27,2.02,4.01,6.06,3.3,12.88,4.18,19.41,1.41,10.6,2.02,21.23,2.17,31.94.2,14.43.59,28.89,1.75,43.27.73,9.1,1.45,18.25,2.08,27.34.49,7.04,2.02,13.74,3.22,20.57"/>
      <path class="cls-1" d="m276.42,412.79c5.96-1.39,11.9-2.52,17.94,1.32-3.2,7.17-2.88,15.19-2.26,23.04.72,9.11.91,18.27,2.29,27.34.59,3.86.4,7.83.8,11.76.96,9.34,1.02,18.78,1.87,28.13,1.02,11.34,1.87,22.67,2.57,34.03.45,7.14,1.25,14.27,1.7,21.43.28,4.53,1.5,9.08,2.94,13.41.75,2.24-.86,5.43,2.44,6.47-.56,2.94-3.71,5.17-1.32,8.28"/>
      <path class="cls-1" d="m239.06,337.15c3.25,9.19,4.68,18.87,7.59,28.14,5.94,18.96,8.84,38.7,15.05,57.59,3.7,11.28,7.14,22.65,10.48,34.04,1.1,3.74.94,7.83,3,11.33"/>
      <path class="cls-1" d="m153.41,411.11c-.37,10.38,2.91,20.2,4.61,30.25,2.78,16.35,10.15,31.26,14.83,47.02,3.45,11.62,5.93,23.37,7.3,35.35.33,2.87,1.78,4.49,3.48,6.29,5.2,5.52,10.26,11.16,14.28,17.64"/>
      <path class="cls-1" d="m226.46,378.33c2.3,6.85,3.95,13.83,5.17,20.99,1.38,8.08,3.69,16.02,5.77,23.97,2.13,8.15,2.86,16.52,4.14,24.8.71,4.58.94,9.24,1.31,13.83.19,2.35.91,6.03,3.63,8.58,4.64,4.35,5.76,10.85,7.62,16.69,8.93,28.02,17.5,56.16,26.91,84.03.32.96-.38,2.23.87,2.93"/>
      <path class="cls-1" d="m267.61,354.8c-.05,5.8,1.71,11.53,1.5,17.22-.28,7.64,1.71,14.82,3.82,21.77,1.84,6.07,3.1,11.75,2.98,18.16-.07,3.54-3.17,3.26-3.79,5.69,3.26,5.44,2.95,11.66,3.07,17.84.17,8.71,1.37,17.39,1.47,26.05.13,10.98,1.85,21.8,2.04,32.77.14,7.96,1.16,15.95,1.6,23.95.49,8.82,1.17,17.64,1.7,26.47.52,8.68,2.07,17.37,1.38,26.05-.39,4.92,1.59,9.92-.61,14.74-.24.53.23,1.38.37,2.08"/>
      <path class="cls-1" d="m311.27,588.43c-6.72,1.99-6.78,1.99-6.71,8.82.17,15.7-1.03,31.36-.98,47.06.05,14.14-.99,28.29-1.55,42.44"/>
      <path class="cls-1" d="m194.55,124.54c9.9,9.84,19.13,20.37,29.83,29.39,3.19,2.69,4.46,7.02,9.07,8.79,2.08.8,2.82,5.46,3.89,8.47,6.07,17.03,11.83,34.16,16.41,51.67.04.17.27.28.41.42"/>
      <path class="cls-1" d="m174.4,148.07c2.24,7.56,4.28,15.19,6.76,22.68,6.07,18.29,10.73,37.04,17.69,55.02,3.3,8.52,7.3,16.8,12.5,24.41"/>
      <path class="cls-1" d="m307.07,580.87c.14,0,.34-.06.41,0,2.37,2.5,4.67,4.49,4.85,8.81.46,11.37,5.55,21.74,9.2,32.3,6.51,18.79,12.87,37.64,19.55,56.37.06.17.27.28.41.42"/>
      <path class="cls-1" d="m153.41,426.23c-1.48,3.84-1.28,7.95-.68,11.74.96,6.06.88,12.09.6,18.09-.98,20.76,5.74,39.24,16.13,56.68.63,1.06.28,1.72.33,2.58"/>
      <path class="cls-1" d="m191.19,59.83c-.26,6.9.68,13.74,1.31,20.59.46,5.04,4.03,8.87,6.45,12.91,7.3,12.17,13.26,25.06,20.72,37.14,4.48,7.25,7.72,15.24,13.88,21.43,3.03,3.05,2.9,5.28.47,9.62"/>
      <path class="cls-1" d="m282.96,587.33c2.22,11.88,1.22,34.97.69,46.9-.44,9.79.53,19.66-.29,29.39-.61,7.32,1.21,14.64-.61,21.87-.09.36.25.83.39,1.25"/>
      <path class="cls-1" d="m228.14,160.67c-2,2.03-1.92,4.19-.88,6.74,5.54,13.55,11.21,27.06,16.33,40.78,3.63,9.73,5.38,20,7.33,30.2.66,3.46.45,7.67,4.78,9.81,6.25-5.63,13.73-4.06,21.15-3.1,1.64.21,2.33,1.05,2.07,2.54-.87,5.17-.68,10.41-.29,15.54.84,10.79,1.04,21.6,2.17,32.39.6,5.74,1.43,11.74.27,17.63-.13.65-.16,1.36.35,2.12,5.09,7.63,6.34,16.65,8.79,25.2,2.79,9.73,5.14,19.58,7.57,29.41.25,1.02-.23,2.23-.37,3.35"/>
      <path class="cls-1" d="m75.31,176.64c-2.08-6.42-2.21-13.17-3.4-19.74-1.63-9.05-1.36-18.22-2.05-27.32-.11-1.53.29-2.89,1.21-4.23,3.45-4.98,6.69-10.11,10.17-15.06.62-.89.81-1.62.75-3.01-8.38.4-16.22,1.41-22.75,7.9-5.2,5.16-9.1,11.05-12.44,17.37-8.41,15.89-16.57,31.91-24.82,47.88-.75,1.45-1.64,2.86-1.26,4.62"/>
      <path class="cls-1" d="m125.7,169.92c3.1,4.11,2.77,9.26,4.1,13.89,3.59,12.48,6.34,25.21,11.05,37.35,1.31,3.39-.53,5.26-3.01,6.23-5.55,2.17-10.78,4.66-15.12,8.87-1.19,1.15-3.08.6-4.57.41-6.79-.89-13.44.09-20.17.83-15.05,1.65-28.64,7.21-41.56,14.77-1.49.87-3.63,1.22-2.94,3.78"/>
      <path class="cls-1" d="m113.94,258.58c-4.74.05-7.9,3.57-11.71,5.55-25.23,13.14-46.77,31.21-67.31,50.66-5.72,5.42-11.03,10.97-15.02,17.74"/>
      <path class="cls-1" d="m185.73,550.19c-5.95-4.75-12.19-6.63-20.2-5.3-10,1.66-19.8,3.75-29.33,7.02-10.91,3.75-21.57,8.32-30.53,15.67-3.8,3.12-8.37,6.2-9.79,11.6"/>
      <path class="cls-1" d="m272.22,3.52c-1.52,7.91-1.71,15.96-2.51,23.95-.76,7.56-1.43,15.12-2.11,22.69-.69,7.72-1.24,15.44-2.34,23.14-.73,5.13-.88,10.4-1.95,15.5-.37,1.75,1.98,2.95.51,4.64"/>
      <path class="cls-1" d="m149.21,235.05c1.55,3.35-.76,6.18-1.3,9.24-.15.84-.8,1.32-.47,2.55,6.14,22.62,12.35,45.22,17.76,68.04.97,4.09,2.8,7.95,3.4,12.18.17,1.21.82,2.57,2.02,3.37"/>
      <path class="cls-1" d="m202.53,554.81c-1.54-3.22,1.67-5.49,1.79-8.32-1.51-1.16-2.67-.21-3.89.33-3.21,1.42-6.33,3.26-9.69,4.07-3.08.74-6.4.43-9.64.82-19.94,2.34-39.61,5.8-58.76,11.92-5.04,1.61-10.08,3.18-14.72,5.84-1.19.68-2.63,1.32-4.17.89"/>
      <path class="cls-1" d="m64.82,507.75c7.98-1.5,15.95-.83,23.93,0,4.47.46,8.95,1.13,13.44,1.21,12.57.24,24.78,2.61,36.95,5.48,8.14,1.92,16.33,3.69,24.76,3.8,1.03.01,2.23.42,2.94-.83"/>
      <path class="cls-1" d="m179.86,394.3c2.37-.15,2.77-2.43,3.71-3.83,11.07-16.54,22.08-33.11,34.5-48.69,5.7-7.15,12.52-13.36,17.67-20.98,1.27-1.88,4.01-1.95,5.08-3.91,3.7,1.06,2.92,3.37,2,5.55-1.56,3.69-.84,6.3,2.47,8.93,5.52,4.38,6.41,11.44,8.88,17.56.59,1.46.97,2.97.88,4.62-.23,4.35.32,7.87,3.91,11.59,4.43,4.57,5.43,11.57,6.92,17.83,1.65,6.94,2.99,13.97,4.18,21.01.44,2.59,0,5.31.1,7.97.05,1.28-.64,2.78.81,3.78"/>
      <path class="cls-1" d="m146.69,248.91c-5.04,10.36-9.9,20.82-15.16,31.07-7.64,14.92-13.36,30.62-19.29,46.24-.44,1.17-1.1,2.25-1.66,3.37"/>
      <path class="cls-1" d="m84.55,445.14c2.87-.45,4.64,1.78,6.67,3.01,20.16,12.26,39.03,26.27,56.25,42.42,2.88,2.7,5.1,6.1,7.59,9.2.38.48.87,1.14.81,1.66-.7,6.2,4.24,9,8.15,11.12,6.91,3.76,10.69,9.01,14.1,16.02,3.34,6.85,9.71,12.22,14.74,18.25.57.69,1.12,1.4,1.68,2.1"/>
      <path class="cls-1" d="m196.65,561.96c-11.83,17.93-25.94,34.19-37.75,52.13-4.87,7.4-9.27,15.1-13.91,22.66-.52.85-.53,2.27-2.09,2.11"/>
      <path class="cls-1" d="m170.62,26.63c3.22,5.32,6.77,10.48,9.57,16.01,3.06,6.04,8,10.6,11.63,16.21,3.52,5.45,7.32,10.76,10.23,16.55,4.58,9.12,8.69,18.48,13.13,27.68.81,1.68.97,3.99,3.31,4.64"/>
      <path class="cls-1" d="m199.59,119.07c-8.57,7.57-17.14,15.14-23.5,24.8-3.12,4.73-6.37,9.4-9.16,14.33-1.46,2.59-3.86,4.37-4.95,7.43-.83,2.31-1.24,4.23-.57,6.39,4.86,15.7,9.74,31.39,14.72,47.05.58,1.82,1.28,3.54,1.22,5.2-10.59-2.16-19.9.12-27.72,7.84"/>
      <path class="cls-1" d="m184.89,555.65c-6.94-3.14-12.62,1.16-17.96,3.95-19.88,10.4-36.64,24.64-49.65,43.1-.65.92-1.91,1.58-.83,2.95"/>
      <path class="cls-1" d="m76.15,107.31c2.49-6.54,8.57-9.14,13.73-13.39,2.26,3.25,5.04,5.61,1,8.8-.51.4-.95,1.44-.82,2.05,1.76,7.86-3.33,13.84-5.55,20.59-2.36,7.14-3.72,14.47-5.1,21.84-1.88,10.03-.88,20.3-3.08,30.31-.49,2.22.18,5,.24,7.52"/>
      <path class="cls-1" d="m210.93,277.49c-5.54-.9-9.66-3.59-12.23-8.8-2.23-4.53-6.1-6.87-11.44-6.75-.76,1.21-1.87,2.41-2.25,3.81-.27.96-1.14,2.2.68,3.42,8.01,5.37,10.62,14.26,13.87,22.62,4.01,10.33,7.72,20.77,11.69,31.5-5.26,2.17-10.95,4.07-16.23,6.79-15.42,7.95-29.71,17.7-43.28,28.51-2.96,2.36-6.23,4.31-8.85,7.11-.82.88-1.92,1.63-3.33,1.29"/>
      <path class="cls-1" d="m90.43,111.51c4.22,4.52,5.35,10.51,7.52,15.98,1.81,4.56,3.83,8.92,7.17,12.6,8.42,9.27,13.45,20.27,16.4,32.34.78,3.19,1.59,6.4,3.33,9.25"/>
      <path class="cls-1" d="m241.15,328.33c-6.23,15.2-11.94,30.6-15.42,46.67-1.48,6.84-2.92,13.7-4.31,20.57-.17.86-.06,1.87-1.26,2.1"/>
      <path class="cls-1" d="m189.09,551.87c-17.13,19.98-29.07,43.06-39.87,66.82-1.82,4-3.73,8.01-4.97,12.2-1.5,5.07-2.33,10.34-3.45,15.52"/>
      <path class="cls-1" d="m147.95,503.55c-3.28,1.38-6.6-.03-9.62-.62-7.42-1.46-14.83-1.55-22.29-1.45-7.77.1-15.42,1.35-23.11,2.4-3.79.52-7.62.72-11.32,1.78"/>
      <path class="cls-1" d="m127.79,264.46c1.01,3.59-1.41,6.33-2.63,9.2-7.29,17.25-11.34,35.48-15.97,53.49-.91,3.56-.61,7.82-1.56,11.69"/>
      <path class="cls-1" d="m76.15,439.26c13.46,9.97,23.51,23.6,36.54,34.02,9.48,7.58,19.42,14.58,28.17,23.07,3.69,3.58,7.25,7.41,11.73,10.09.49.29,1.37,1.55,2.07.05"/>
      <path class="cls-1" d="m249.13,50.58c-3.38-1.66-6.32-3.65-8.93-6.62-6.69-7.6-13.87-15.08-23.45-18.88-13.03-5.17-26.16-5.51-38.58,2.39"/>
      <path class="cls-1" d="m189.51,37.98c7.12,4.75,9.63,12.63,12.91,19.8,5.46,11.93,10.46,24.1,13.5,36.94,1.06,4.46,3.01,8.71,3.03,13.44,0,2.17.61,4.32,1.63,6.3"/>
      <path class="cls-1" d="m223.94,335.89c.14,3.01-1.07,5.68-2.1,8.4-1.43,3.79-1.67,7.85-1.99,11.77-.88,11.04-1.35,22.12-1.71,33.19-.09,2.66.44,5.44,1.59,7.98.79,1.76.38,3.63.43,5.46"/>
      <path class="cls-1" d="m139.55,225.38c-3.47-2.03-5.74-5.03-8.12-8.3-7.15-9.82-15.03-19.11-22.51-28.69-6.08-7.79-12.42-15.39-16.92-24.3-.47-.93-1-2.74-2.84-2.57"/>
      <path class="cls-1" d="m217.22,590.11c3.4,4.83,4.92,10.47,6.7,15.97,3.52,10.88,5.59,22.13,8.46,33.18.82,3.17,1.87,5.91,5.76,7.36,4.19,1.57,5.57,6.47,6.64,10.34,3.92,14.31,7.8,28.65,10.65,43.24"/>
      <path class="cls-1" d="m174.82,569.1c-9.76,2.62-18.01,8.27-26.42,13.49-10.13,6.29-19.56,13.57-28.6,21.36-2.33,2.01-5.58,3.03-6.7,6.33"/>
      <path class="cls-1" d="m69.44,128.74c-5.99,6.49-10.18,14.36-15.97,20.99-9.59,10.98-19.33,21.83-28.92,32.82-2.1,2.41-5.71,3.25-6.75,6.7"/>
      <path class="cls-1" d="m71.95,193.87c-3.37-2.1-7.19-3.16-10.94-4.09-3.37-.83-6.94.39-9.57,2.48-11.75,9.35-23.29,18.97-34.89,28.52-.29.24-.3.82-.44,1.24"/>
      <path class="cls-1" d="m238.64,311.94c-1.72.28-3.43-.34-5.11,1.18-2.89,2.62-6.68,2.93-10.42,2.57-5.26-.5-8.67,1.49-10.1,6.74-1.67,6.13-6.08,10.81-8.82,16.38-6.92,14.04-14.23,27.9-20.84,42.09-2.5,5.36-3.47,11.43-5.19,17.16-.27.89-.82,1.69-1.24,2.53"/>
      <path class="cls-1" d="m98.41,205.63c-15.92,6.15-29.69,15.58-42.49,26.79-7.78,6.81-14.73,14.4-22.17,21.53"/>
      <path class="cls-1" d="m255.01,248.49c-1.19,3.78,1.28,7,1.9,10.47,1.58,8.94,2.45,17.91,3.21,26.93.43,5.06,1.36,10.06.35,15.13"/>
      <path class="cls-1" d="m192.87,89.66c2.24,1.72,3,4.38,4.17,6.74,6.92,13.86,14.67,27.26,22.31,40.73.7,1.23,1.46,2.32,1.23,3.8"/>
      <path class="cls-1" d="m62.72,197.23c-.41,3.07-2.61,5.18-4.24,7.53-5.72,8.25-14.01,13.98-21.03,20.95-7.03,6.98-15.13,12.82-22.17,19.83"/>
      <path class="cls-1" d="m247.03,79.16c-4.85-2.23-8.23-6.32-12.14-9.71-10.36-8.95-21.59-16.59-33.63-23.06-1.3-.7-2.58-1.58-4.19-1.27"/>
      <path class="cls-1" d="m183.64,391.78c3.2,7.42,4.57,15.38,6.66,23.13,1.75,6.46,2.75,13.05.93,19.75-.17.62.24,1.39.38,2.09"/>
      <path class="cls-1" d="m131.99,245.55c3.57,3.5,1.05,7.01,0,10.5-1.52,5.05-5.16,8.76-8.45,12.56-11.28,13.02-24.88,23.57-37.71,34.95-.58.51-1.13.31-1.7.4"/>
      <path class="cls-1" d="m131.15,247.23c-5.92,2.22-11.51,5.27-15.44,10.16-7.24,9.02-15.9,16.91-21.54,27.22-2.89,5.29-6.01,10.46-9.26,15.53-1.38,2.16-1.18,5.02-3.3,6.76"/>
      <path class="cls-1" d="m84.13,148.07c1.36,5.37,3.91,10.3,4.87,15.92.92,5.38,3.85,10.45,6.07,15.58,3.71,8.59,8.62,16.61,12.64,24.97,3.51,7.29,9.56,10.94,15.26,15.08,2.27,1.65,6.54,3.21,10.28,1.55"/>
      <path class="cls-1" d="m71.95,216.56c1.68-4.2,3.22-8.47,5.09-12.58,1.03-2.27,1.83-4.62,4.91-5.71,1.93-.68.56-3.69,1.19-6.21-10.21,1.98-18.45,5.16-22.14,15.24-1.72,4.71-3.8,9.29-5.86,13.87-1.47,3.27-.22,6.81-1.23,10.1"/>
      <path class="cls-1" d="m131.57,244.71c-7.78-4.18-15.43-3.08-23.1.41-15.37,7-29.52,15.97-41.9,27.41-9.77,9.02-18.22,19.36-26.5,29.77-3.24,4.07-6.2,8.37-9.25,12.59-.7.97-1.98,1.88-.85,3.35"/>
      <path class="cls-1" d="m255.43,1c-2.48,2.18-.56,5.08-1,7.61-1.51,8.71-1.88,17.61-2.8,26.42-.56,5.34-1.34,10.65-2.02,16.01,4.7,2.91,10.22,4.63,14.22,8.79"/>
      <path class="cls-1" d="m163.9,37.98c.18,17.14-2.55,34.13-2.52,51.26"/>
      <path class="cls-1" d="m120.24,160.67c1.8-3.06,3.86-5.72,7.54-6.8,1.26-.37,2.26-1.61,3.38-2.45,16.76-12.57,34.93-22.61,54.62-29.73,4.38-1.58,8.68-4.22,13.84-3.19.99.2,2.86-.68,3.44-2.75-5.2-1.71-9.42-6.11-15.65-5.12-4.65.74-8.79,2.81-13,4.68-6.18,2.75-11.88,6.28-17.26,10.44-10.31,7.98-21.04,15.43-29.79,25.24-.79.88-1.86,1.59-.83,2.95"/>
      <path class="cls-1" d="m210.93,575.82c-1.11.27-1.69-.63-2.06-1.28-3.03-5.28-7.07-9.65-12.02-13.41.42-.5.77-.87,1.06-1.28,3.54-5.21,5.52-5.38,9.19.04,5.95,8.79,10.73,18.26,13.35,28.57.94,3.71,2.38,7.19,4.06,10.39,3.96,7.53,6.38,15.52,8.62,23.62.21.77.33,1.42.85,2.12,4.78,6.45,4.25,13.98,4.23,21.4"/>
      <path class="cls-1" d="m189.51,121.18c-1.85,3.89-5.49,6.29-8.1,9.57-6.21,7.82-11.6,16.09-16.25,24.89-.83,1.58-1,3.29-.84,5.04"/>
      <path class="cls-1" d="m256.69,341.36c1.68.21,2.76,1.36,3.77,2.53,7.77,9.04,16.05,17.62,23.23,27.21,2.78,3.71,4.65,7.22,4.97,11.86.68,9.94,3.2,19.54,6.21,29.01.07.21-.25.55-.39.83"/>
      <path class="cls-1" d="m280.62,312.78c-4.71-3.73-8.99-7.96-15.08-9.77-5.03-1.5-10-2.08-15.14-1.55-2.16.23-3.8,1.05-3.83,3.76-.03,2.78,1.25,3.29,3.79,3.94,4.69,1.21,8.72,3.66,12.85,6.69,11.71,8.58,15.84,21.47,21.55,33.52,3.41,7.19,6.28,14.62,10.46,21.46,1.33,2.17,3.92,3.69,3.88,6.66"/>
      <path class="cls-1" d="m105.12,63.19c-3.54,1.59-6.44,3.85-7.82,7.96,7.07,11.82,8.69,25.88,12.82,39.12.11.34-.25.83-.39,1.25"/>
      <path class="cls-1" d="m207.99,318.25c-11.13.45-22.37,1.21-31.82,7.7-7.33,5.04-13.52,11.63-19.37,18.38-5.34,6.16-10.93,12.22-15.41,18.99-3.91,5.91-8.52,11.07-13.18,16.28"/>
      <path class="cls-1" d="m29.13,217.4c-.67,3.05-2.93,5.2-4.7,7.5-6.41,8.34-11.84,17.33-17.45,26.18-2.01,3.17-3.79,6.52-5.98,9.6"/>
      <path class="cls-1" d="m172.72,344.72c3.51,11.23,6.7,22.54,9.25,34.03.16.73.54,1.4.82,2.1"/>
      <path class="cls-1" d="m230.66,43.86c2.14,5.32,3.57,10.85,5.12,16.36,1.7,6.01,6.96,9.87,10.13,15.07,2.19,3.58,3.76,7.67,7,10.59"/>
      <path class="cls-1" d="m100.92,1c2.47,7.47,6.75,14.19,8.89,21.83,1.29,4.59,3.29,8.98,4.97,13.47"/>
      <path class="cls-1" d="m275.16,634.65c-6.49,8.04-15.58,10.91-25.16,13.16-2.98.7-5.99.16-8.85,1.13"/>
      <path class="cls-1" d="m63.56,195.55c-1.76,2.14-4.21.59-6.33,1.14-8.73,2.28-16.08,6.8-21.68,13.66-3.32,4.07-7.39,6.37-11.75,8.94-4.57,2.69-10.4,2.93-13.98,7.35"/>
      <path class="cls-1" d="m273.06,632.55c-7.98,6.98-17.06,11.42-27.69,12.73-1.77.22-4.05.25-5.47,1.98"/>
      <path class="cls-1" d="m76.15,227.06c5.88.28,11.77.96,17.63.69,3.64-.17,7.4-.69,10.9-.12,5.77.95,9.55-2.01,13.46-5.2"/>
      <path class="cls-1" d="m99.66,248.07c-4.59-.93-9.24-.21-13.86-.41-2.32-.1-2.89,2.12-4.19,3.36-8.43,8.03-15.91,16.91-23.08,26.06-1.03,1.31-2.2,2.68-1.7,4.61"/>
      <path class="cls-1" d="m169.78,27.47c-9.72,9.02-15.8,20.85-23.93,31.09"/>
      <path class="cls-1" d="m148.37,247.65c9.12,1.19,18.16,2.87,26.82,6.02,1.35.49,2.55.49,3.83.71"/>
      <path class="cls-1" d="m122.76,220.34c-2.63,2.57-5.9.77-8.81,1.32-7.54,1.41-15.13.51-22.68.77-1.4.05-2.85.27-4.2-.4"/>
      <path class="cls-1" d="m155.93,46.38c.84,7.84,1.61,15.7,2.56,23.53.28,2.28,1.08,4.49,1.64,6.73"/>
      <path class="cls-1" d="m213.44,254.38c-.02,7.94,2.13,15.39,5,22.71.93,2.38,2.88,4.69,1.3,7.55"/>
      <path class="cls-1" d="m140.39,103.53c1.32-3.8-.57-7.13-1.74-10.48-1.11-3.18-2.71-6.2-4.15-9.26-1.3-2.76-2.69-2.89-4.6-.42-1.17,1.5-2.4,2.99-3.34,4.63-3.04,5.33-7.66,9.12-12.2,13.01"/>
      <path class="cls-1" d="m164.32,45.12c5.47,6.07,9.04,13.57,14.39,19.65,5.71,6.5,6.21,14.12,6.57,21.95.21,4.58,1.18,9,2.13,13.44"/>
      <path class="cls-1" d="m304.55,659.44c4.38,9.43,7.65,19.29,11.34,28.99"/>
      <path class="cls-1" d="m143.33,227.48c2.32.7,4.64,1.69,5.8,3.82,1.44,2.64,3.33,2.26,5.53,1.65,6.15-1.7,12.26-3.6,18.49-4.95,2.82-.61,5.81-.13,6.72,3.68,1.47,6.18,3.23,12.3,4.51,18.51.47,2.27.37,4.78-.33,7.12"/>
      <path class="cls-1" d="m152.99,71.59c.08,1.13-.31,2.05.25,3.43,2.36,5.86,4.18,11.95,6.01,18.01.93,3.08,2.92,5.44,4.71,7.94.81,1.13,1.05,2.18.77,3.4-1.17,5.13.26,10.11.85,15.13"/>
      <path class="cls-1" d="m175.24,32.51c2.74-.08,5.1,1.26,7.53,2.16,2.91,1.07,5.37,1.91,8.88,1.48,7.59-.94,15.32-1.84,23.06-1.13,4.92.45,8.79,2.96,12.64,5.84,4.31,3.22,9.48,4.67,14.65,5.94"/>
      <path class="cls-1" d="m150.89,138.82c3.29,8.52,5.81,17.3,8.42,26.05.14.46.54.85.82,1.27"/>
      <path class="cls-1" d="m192.03,261.1c5.66-3.54,11.58-6.01,18.61-4.71,1.32-2.19,1.06-4.33-1.82-4.44-8.13-.33-15.6,1.49-20.99,8.31"/>
      <path class="cls-1" d="m91.27,108.99c2.19.3,3.9,1.47,5.42,2.86,5.81-2.42,11.41-1.31,16.36,1.84,8.24,5.25,13.53,13.61,20.16,20.55.35.37.05,1.36.05,2.06"/>
      <path class="cls-1" d="m159.7,25.37c-.63-3.19-3.73-3.09-5.43-2.79-16.6,2.94-32.6,7.44-44.95,20.02"/>
      <path class="cls-1" d="m271.38,456.49c-8.61-.89-16.08,2.17-23.07,6.76-1.09.71-1.88,1.85-3.38,1.64"/>
      <path class="cls-1" d="m154.25,234.21c8.41,4.79,15.86,10.96,22.91,17.42,3.07,2.81,6.88,5.18,9,9.05"/>
      <path class="cls-1" d="m270.12,453.55c-9.71-.82-18.03,2.36-25.19,8.82"/>
      <path class="cls-1" d="m264.25,317.4c1,4.77,4.21,8.57,5.82,13.05,1.4,3.9,3.88,7.66,2.58,12.16"/>
      <path class="cls-1" d="m126.12,1.84c2.33,8.61,6.46,16.52,9.66,24.79"/>
      <path class="cls-1" d="m172.72,28.73c6.11-1.86,11.81.81,17.62,1.78,4.16.69,8.63.81,12.19,3.69"/>
      <path class="cls-1" d="m82.45,248.91c-5.2-.94-9.89,1.26-14.68,2.57-4.82,1.31-9.53,3.03-14.29,4.57"/>
      <path class="cls-1" d="m164.32,40.5c5.14,5.53,9.36,11.75,13.45,18.06,1.14,1.76,2.5,3.37,3.76,5.05"/>
      <path class="cls-1" d="m197.91,121.18c6.8,7.75,14.32,14.65,23.03,20.27,1.98,1.28,3.5,3.65,4.57,5.84.78,1.59,1.76,2.71,2.79,3.9,1.11-.45,1.76-.92,1.95-1.86"/>
      <path class="cls-1" d="m53.9,256.9c.82,2.34.68,4.83.33,7.13-.79,5.34.18,10.67-.33,15.98"/>
      <path class="cls-1" d="m109.32,211.52c-6.11,2.64-12.55,4.32-18.54,7.43-8.73,4.54-17.65,8.59-26.1,13.78-5.56,3.42-11.25,6.82-17.05,9.93-.77.41-1.43.23-2.13.37"/>
      <path class="cls-1" d="m198.33,266.56c2.45-1.34,4.35.28,6.27,1.31,1,.54,1.89,1.51,2.52,2.49,4.23,6.59,9.63,12.15,15.13,17.64,3.16,3.15,7.24,5.18,9.77,9.17,2.41,3.8,4.67,7.68,6.07,11.87,1.02,3.05,2.75,4.61,5.59,5.42"/>
      <path class="cls-1" d="m164.32,103.95c-9.46-2.34-16.53,1.77-22.67,8.4"/>
      <path class="cls-1" d="m123.18,80c-4.54-2.92-6.35-8.48-10.92-11.33-7.66-4.78-10.69-12.98-15.18-20.13-1.53-2.43-2.74-6.13-7.06-4.67"/>
      <path class="cls-1" d="m250.39,52.26c-.7,7.84-1.4,15.69-2.1,23.53"/>
      <path class="cls-1" d="m114.36,123.28c.84,5.04,1.47,10.13,2.58,15.11,1.14,5.1,2.82,10.08,4.08,15.15.31,1.25.37,2.41,1.74,2.93"/>
      <path class="cls-1" d="m162.64,100.17c-5.15.4-10.21,1.01-15.15,2.84-2.85,1.05-4.9,2.97-7,4.83-.62.55-1.19,2.42-.09,3.67,5.09,5.77,6.1,13.24,8.39,20.17"/>
      <path class="cls-1" d="m249.55,335.05c3.61,1.71,5.35,4.46,7,8.28,2.53,5.85,4.47,11.9,6.73,17.82,1.26,3.3.77,7.17,2.6,10.48.8,1.44,1.08,3.16,2.57,4.17"/>
      <path class="cls-1" d="m304.55,577.5c-7.49-2.29-13.85.81-20.15,4.2"/>
      <path class="cls-1" d="m285.66,354.38c-1.14,5.5-.94,10.74,2.5,15.56,3.7,5.2,4.32,11.8,7.59,17.21.36.6.83,1.13,1.25,1.69"/>
      <path class="cls-1" d="m97.99,112.77c2.23,2.28,4.82,3.75,7.95,4.72,5.23,1.62,9.11,5.6,13.46,8.74,4.88,3.52,8.61,8.63,14.65,10.63.52.17,1.91,1.4,1.72,2.81"/>
      <path class="cls-1" d="m173.14,25.79c-1.68.55-3.4.65-5.03-.02-4.26-1.74-8.13-.98-11.29,2.17-2.08,2.08-4.29,3.2-7.18,3.81-9.31,1.96-18.37,4.7-26.54,9.89-1.06.68-1.83,1.59-2.87,2.22"/>
      <path class="cls-1" d="m134.93,57.73c-6.53,12.16-12.4,24.62-17.75,37.35-.51,1.21-.55,2.26-.72,3.41"/>
      <path class="cls-1" d="m203.37,557.75c.42,2.83,2.65,4.74,3.69,7.18,3.19,7.46,5.97,15.09,8.91,22.65.23.58.55,1.12.83,1.68"/>
      <path class="cls-1" d="m276.84,243.03c-6.51-3.2-12.88-2.92-19.36.32-1.71.85-2.4,1.91-2.89,3.46"/>
      <path class="cls-1" d="m103.44,117.39c4.06,5.74,8.12,11.49,12.18,17.23"/>
      <path class="cls-1" d="m143.75,63.61c-2.8,3.92-5.63,7.82-8.38,11.78-1.12,1.61-2.38,3.25-1.7,5.45"/>
      <path class="cls-1" d="m276,414.47c3.61.96,7.28.28,10.92.37,2.16.05,4.25.2,6.3.89"/>
      <path class="cls-1" d="m156.34,74.11c-1.58-1.78-3.6-3.14-4.65-5.45-2.2-4.84-7.5-5.75-11.41-8.26-6.65-4.27-13.64-8.06-21.69-9.62-2.54-.49-4.79-.27-7.25-.21-2.47-2.92-4.79-6.06-7.53-8.78-4.77-4.74-8.18-4.93-13.81-1.3"/>
      <path class="cls-1" d="m106.8,43.86c5.81-1.03,11.38-.67,16.82,2.05,7.75,3.89,15.4,7.84,21.41,14.31.82.88,1.53,1.67,1.24,2.96"/>
      <path class="cls-1" d="m59.36,255.22c-.87,5.73-2.39,11.31-4.2,16.81"/>
      <path class="cls-1" d="m192.87,84.2c-.7,7.56-1.4,15.13-2.1,22.69"/>
      <path class="cls-1" d="m127.79,87.56c3.99,5.63,7.62,11.52,12.56,16.43.56.56.6,1.64.88,2.48"/>
      <path class="cls-1" d="m149.21,233.37c-3.84,2.72-6.37,7.2-11.33,8.41-1.73.42-1.65,2.5-2.94,3.35"/>
      <path class="cls-1" d="m259.21,327.07c-5.52-.96-10.95-.19-16.37.84"/>
      <path class="cls-1" d="m254.17,310.68c-1.19,1.38-1.41,3.41-.73,4.56,2.84,4.82,4.39,10.42,8.69,14.37,4.18,3.84,6.2,9.35,10.09,13.43"/>
      <path class="cls-1" d="m270.54,9.82c-4.27-4.56-9.33-5.6-15.11-3.36"/>
      <path class="cls-1" d="m83.29,198.91c5.24,2.29,10.9,3.43,16.01,6.2,2.7,1.46,6.31.05,9.18,1.79"/>
      <path class="cls-1" d="m226.88,298.08c.74,5.31,3.1,10.01,5.46,14.71"/>
      <path class="cls-1" d="m182.8,48.9v14.29"/>
      <path class="cls-1" d="m224.36,290.93c.7,2.68,1.62,5.18,3.75,7.17,2.66,2.48,3.67,6.03,4.94,9.26.64,1.62,1.44,3.07,2.23,4.57"/>
      <path class="cls-1" d="m64.4,233.79c-.13,3.54-1.82,6.69-2.48,10.09-.23,1.21-1.12,2.51-.04,3.77"/>
      <path class="cls-1" d="m152.57,31.67c-5.31,7-11.21,13.62-14.69,21.85"/>
      <path class="cls-1" d="m203.79,431.28c-3.39,4.05-8.79,6.01-11.34,10.93"/>
      <path class="cls-1" d="m111.84,51c4.76,7.28,9.52,14.57,14.27,21.85"/>
      <path class="cls-1" d="m122.34,158.57c1.52,4.5,2.3,9.06,2.73,13.85.45,5.03.79,10.12,1.47,15.15"/>
      <path class="cls-1" d="m249.13,82.52c-1.44,3.79-2.13,7.71-2.1,11.77"/>
      <path class="cls-1" d="m53.06,240.51c.7,3.92,1.4,7.84,2.1,11.77"/>
      <path class="cls-1" d="m53.06,256.06c-4.46,1.86-7.86,5.28-11.76,7.98"/>
      <path class="cls-1" d="m168.52,129.58c1.76,3.43,1.53,7.4,2.94,10.93"/>
      <path class="cls-1" d="m138.71,35.46c1.26,2.89,1.54,6.15,3.36,8.82"/>
      <path class="cls-1" d="m107.22,66.13c-3.64,1.39-5.58,4.78-8.4,7.14"/>
      <path class="cls-1" d="m166.42,515.32c2.21,4.16,5.29,7.52,9.24,10.08"/>
      <path class="cls-1" d="m130.31,243.45c0-1.51,1.86-2.19.87-4.59-1.56-1.39-4.94-.72-7.58-2.13"/>
      <path class="cls-1" d="m109.32,228.32c-2.24,2.53-5.49,3.69-7.98,5.88"/>
      <path class="cls-1" d="m141.65,225.8c1.25.88,1.12,1.92.96,3.37-.22,2.05-.78,4.35.72,6.29"/>
      <path class="cls-1" d="m182.38,64.03c1.31,2.11,1.73,4.34.84,6.72"/>
      <path class="cls-1" d="m126.96,61.51c-.64-4.95-2.98-5.54-8.4-2.1"/>
      <path class="cls-1" d="m129.89,65.71c-3.45-5.37-4.37-5.67-9.24-2.94"/>
      <path class="cls-1" d="m239.9,314.04c-1.4,1.4-2.94,2.73-2.52,5.04"/>
      <path class="cls-1" d="m218.06,343.04c.56,1.68,1.12,3.36,1.68,5.04"/>
      <path class="cls-1" d="m10.24,250.59c-1.08,1.61-2.18,3.21-4.2,3.78"/>
      <path class="cls-1" d="m137.45,213.2c-1.54.42-3.08.84-4.62,1.26"/>
      <path d="m264.4,97.79c-.71,10.64-.84,21.32-.45,31.97s1.29,21.07,2.5,31.55c1.06,9.17,2.36,18.31,3.57,27.47,1.04,7.85,2.03,15.73,2.45,23.64.49,9.21,1.53,18.37,3.31,27.42.2,1,.4,2.01.62,3.01.27,1.26,2.2.73,1.93-.53-2-9.37-3.27-18.89-3.78-28.45-.39-7.41-1.19-14.78-2.14-22.15-1.16-9.01-2.46-17.99-3.55-27.01-1.24-10.28-2.23-20.59-2.73-30.94-.55-11.28-.53-22.59.14-33.87.04-.71.09-1.42.13-2.12.09-1.28-1.91-1.28-2,0h0Z"/>
    </g>
  </g>
</svg>