<?xml version="1.0" encoding="UTF-8"?>
<svg id="Layer_2" data-name="Layer 2" xmlns="http://www.w3.org/2000/svg" viewBox="0 0 63.92 57.47">
  <defs>
    <style>
      .cls-1 {
        fill: #f98516;
      }
    </style>
  </defs>
  <g id="Layer_2-2" data-name="Layer 2">
    <g id="Layer_2-2" data-name="Layer 2-2">
      <g id="Layer_1-2" data-name="Layer 1-2">
        <g>
          <path class="cls-1" d="m43.4,54.16c-3.22-.1-5.21-1.62-6.2-4.58-.2-.46.06-1.34.39-1.59,1.21-.98,2.55-1.9,3.89-2.82,2.17-1.51,2.87-3.14,2.17-5.45-.15-.59-.7-1.33-1.23-1.53-.26-.1-1,.45-1.51.78-.23.21-.43.52-.75.77-.61.6-1.37,1.59-2.04,1.56-.98,0-2.17-.46-2.95-1.21-.39-.38-.11-1.48-.12-2.24-.1-.72-.2-1.44-.31-2.16-.72.1-1.44.2-2.21.44-.86.27-1.73,1.53-2.57.38-.47-.56-.77-1.74-.52-2.4.35-.92,1.44-2.17,2.15-2.05.89.04,1.83,1.16,2.82,1.92-.94-.89-1.74-2.18-2.83-2.68-.57-.29-1.87.72-2.66,1.4-.98.99-.63,3.02.52,4.37.43.47,1,.76,1.42,1.23,1.2,1.22.89,2.99-.66,3.69-.27.12-.89-.04-1.11-.27-.8-1.07-1.51-2.17-2.32-3.24-.59-.83-1.41-1.45-2.09-2.24-.7.64-1.53,1.23-1.97,1.97-2.04,3.53-1.91,4.57,1.1,7.39.6.61,1.25,1.09,1.72,1.64l.04.09c.32-.25.84.17,1.46.33,2.57.61,5.14,1.22,7.73,1.38,1.12.05,1.51.2,1.74,1.2.53,2.17,1.62,3.88,3.73,4.69.71.12,1.38.15,2.14.14.98,0,2.01.09,3.09.05-.63.06.09-.04.22.01.22.01.54-.02.76-.01.09-.04.22.01.31-.03.18-.08.41-.07.59-.15-.5.11.18-.08.18-.08.18-.08.37-.16.68-.19.95-.32,1.86-.5,2.72-.77.18-.08.41-.07.63-.06,2.08-.49,4.16-.98,6.16-1.65.77-.23,1.3-1.02,2-1.66-5.34,1.28-10.47,3.78-16.33,3.65Zm-1.71-13.69c.02-.45-.05-.85,0-1.21.39.38.91.58,1.12,1.04s.17,1.13.29,1.62c-.43-.47-.85-.93-1.41-1.45h0Zm-2.7,2.3c.21.23.43.47.68.79-.03-.31-.15-.59-.18-.9-.08-.18-.03-.31-.02-.54.13.05.4.15.57.29.21.23.47.56.68.79-.03-.31-.06-.63-.18-.9-.07-.41-.14-.81-.21-1.22.25.32.56.52.81.84.17.14.21.23.29.42-.08-.18-.07-.41-.19-.68-.11-.5-.09-.94-.2-1.44.29.42.72.88,1.02,1.3,1,1.75-.02,2.42-1.69,2.83h0c-1.11.71-2.37.83-3.38-.47-.08-.18-.02-.54.08-.8.71.12,1.37.38,1.94-.32Zm-3.67-2.09c.36.06.8.08,1.29.19l-.04.89c-.36-.06-.84-.17-1.15-.37-.13-.05-.11-.5-.1-.72Zm-7.66,1c.57.29,1.01.54,1.61.92h0c-.19.3-.52.56-.52.56-.48-.33-.91-.58-1.39-.91-.04-.09.15-.4.29-.57Zm-4.37-2.43c.02-.45.21-.75.38-1.37.43.47.77.75.72.88-.06.36-.34.7-.54,1.01-.21-.23-.61-.39-.56-.52Zm9.46,6.74c.74.44,1.52.96,2.26,1.4.17.14.35.28.48.33-.18.08-.23.21-.42.29-1.7.86-7.1-.45-8.1-1.98-.34-.51-.49-1.1-.64-1.69-.08-.18.57-.69.7-.64,1.71.88,2.58-.6,3.78-1.35.26.1.58.07.93.13h0c.43-.52.89-.94,1.41-1.5.28-.35.57-.69.85-1.04.25.32.51.65.67,1.02.58,1.06,1.16,2.11,1.65,3.21.78,1.51.45,1.99-1.16,1.83-.8-.08-1.66-.03-2.42-.02Z"/>
          <path class="cls-1" d="m56.83,16.19c-.38-.15-.74-.37-1.09-.7-2.17-1.92-4.71-3.11-7.43-4.01-.62-.1-1.24-.2-1.87-.27-1.46-.16-2.92-.22-4.39-.21-.33.12-.66.25-.95.38-1.24.66-1.58.38-2.1-1.03-.96-2.64-2.14-5.07-3.37-7.58C34.69.9,32.93.15,30.79,0c-2.01-.09-3.36,1.06-4.31,2.36-1.67,2.39-3.18,4.92-4.55,7.5-.64,1.27-1.04,2.33-2.9,1.84-.97-.22-2.38.07-3.34.61C8.4,16.2,2.47,21.44.6,30.02c.6-.98,1.25-1.99,1.67-3.1,1.65-4.89,5.63-7.76,9.31-10.82.32-.25.73-.33.96-.54,4-3.31,7.99-2.46,12.08.1,1.96,1.21,3.14,2.87,3.08,5.2-.09,3-.14,6.08.09,9.05.1-3.22-.02-6.45.21-9.62.23-3.17-1.42-5.17-3.95-6.67-2.7-1.64-2.86-2.01-1.22-4.71,1.26-2.09,2.65-4.13,4.33-5.76,3.37-3.25,7.31-2.27,9.22,2.03l1.42,3.2c1.06,2.38,1.28,4.36-.96,6.45-2.94,2.73-2.35,6.52-1.75,10.08.62,3.12,1.24,6.23,1.7,8.99.71-1.85-.08-4.12-.56-6.43-.44-2.21-.83-4.34-.96-6.58-.18-2.87,1.61-4.99,3.84-6.63,4.58-3.24,11.25-3.25,15.17,1.13,2.69,2.85,5.42,5.8,7.38,9.2,2.07,3.67,2.65,7.68.32,11.79-2.37,4.01-5.35,7.41-9.31,9.83-3.36,2.04-6.71,2.88-10.38-.2,1.74,3.17,4.21,4.04,7.38,3.06,2.77-.9,5.13-2.5,7.28-4.55,1.97-1.97,2.59-1.81,3.27.95.39,1.32.25,2.87.24,4.29.36-.91.98-1.89.9-2.72-.16-1.35-.86-2.68-1.25-4.04-.24-.55-.39-1.36-.18-1.89.75-1.76,2.07-3.22,2.6-4.99.73-2.29,1.29-4.73,1.4-7.19.02-.34-.05-.7-.14-1.07-1.69-4.41-4.09-8.18-6.95-11.68Z"/>
          <path class="cls-1" d="m25.36,48.06c-.25,2.63-1.99,4.39-3.9,6-3.49,2.98-7.6,3.82-11.92,3.22-1.74-.21-3.26-1.18-3.76-3.03-.5-1.86.24-3.39,1.68-4.58l-.13-.05c.11,1.48-2.32,2.89-.37,4.33,1.3.95,2.98,1.52,4.47,2.17.4.15,1.08-.04,1.61-.06,5.74-.14,9.59-3.28,12.31-8h0Z"/>
          <path class="cls-1" d="m7.72,49.02c-.45-1-.62-2.13-1.21-2.96-2.64-3.97-5.78-7.83-6.36-12.82-.14-.81-.01-1.75-.06-2.6l-.09.04c.9,5.95,3.67,10.95,8.05,15.14,3.47,3.38,7.56,3.21,10.89-.36.66-.73,1.23-1.42,1.89-2.15-.83,1.57-1.62,3.24-3.05,4.2-1.66,1.18-3.76,1.89-5.8,2.47-.77.23-1.8-.84-2.81-1.16-.4-.15-.94.09-1.44.2h0Z"/>
          <path class="cls-1" d="m7.51,49.77c.01-.22.11-.49.21-.75l-.13-.05-.08.8h0Z"/>
          <path class="cls-1" d="m22.27,35.21c.06-.36.21-.75.23-1.2s.13-.93.15-1.38c.48.33,1.1.5,1.3.95.12.27-.35.92-.73,1.31-.28.35-.69.42-1.02.67-.32.25-.65.51-.97.76-.08-.18-.43-.47-.34-.51.19-.3.43-.52.71-.86.26.1.44.24.66.25h0Zm.47-.43l-.1.26c.13.05.22.01.45.02l.1-.26c-.22-.01-.36-.06-.45-.02h0Z"/>
          <path class="cls-1" d="m23.72,29.86c.1-.26.11-.49.12-.71.78.53,1.52.96,2.21,1.53.04.09-.25.66-.45.96-.69-.57-1.29-1.18-1.89-1.79h0Z"/>
          <path class="cls-1" d="m19.83,41.55c-.44-.24-.97-.22-.96-.45-.03-.31.08-.8.31-1.02.14-.17.58.07.89.04-.02.45-.08.8-.24,1.42h0Z"/>
          <path class="cls-1" d="m38.88,36.14c-.16.62-.31,1.02-.33,1.46-.36-.06-.75-.21-1.11-.27.15-.4.21-.75.41-1.06.1-.26.59-.15,1.04-.13q-.04-.09,0,0Z"/>
          <path class="cls-1" d="m45.12,44.75c-.36-.06-.58-.07-.8-.08.14-.17.24-.44.39-.61.09-.04.31-.03.45.02.08.18.07.41-.03.67h0Z"/>
          <path class="cls-1" d="m13.33,34.81c.17.14.35.28.43.47.04.09-.28.35-.28.35-.17-.14-.35-.28-.52-.43.05-.13.23-.21.38-.39h0Z"/>
          <path class="cls-1" d="m41.22,34.77c-.19.3-.33.48-.52.56-.09.04-.3-.19-.48-.33-.04-.09.15-.4.28-.35.18-.08.36.06.71.12h0Z"/>
          <path class="cls-1" d="m19.43,33.52c-.01.22.02.54.02.54-.18.08-.41.07-.63.06.05-.13-.07-.41.02-.45.18-.08.41-.07.59-.15h0Z"/>
          <path class="cls-1" d="m38.68,30.53c.26.1.53.2.7.34.04.09-.1.26-.15.4-.26-.1-.49-.11-.66-.25,0,0,.01-.22.11-.49h0Z"/>
          <path class="cls-1" d="m14.94,43.83l-.46.2-.08-.18c.09-.04.27-.12.41-.07.05-.13.09-.04.13.05h0Z"/>
          <path class="cls-1" d="m31.55,42.79c.18-.08.23-.21.19-.3.03.31.15.59.18.9-.12-.27-.2-.46-.38-.6Z"/>
        </g>
      </g>
    </g>
  </g>
</svg>