<?xml version="1.0" encoding="UTF-8"?>
<svg id="Layer_2" data-name="Layer 2" xmlns="http://www.w3.org/2000/svg" viewBox="0 0 479.77 36.23">
  <defs>
    <style>
      .cls-1 {
        fill: #f98516;
      }
    </style>
  </defs>
  <g id="Layer_2-2" data-name="Layer 2">
    <g id="Layer_1-2" data-name="Layer 1-2">
      <g>
        <path class="cls-1" d="m351.16.08c6.89,0,13.78-.05,20.67.02,4.86.05,9.02,3.83,9.6,8.48.16,1.3-.02,2.1-1.58,1.97-.89-.07-1.79-.05-2.68,0-1,.05-1.64-.19-1.98-1.28-.8-2.53-2.79-3.24-5.25-3.23-8.86.03-17.71.01-26.57.01-3.76,0-7.52-.02-11.27,0-3.77.03-5.44,1.64-5.48,5.35-.05,4.47-.05,8.95,0,13.42.04,3.53,1.73,5.3,5.29,5.32,12.7.05,25.41.05,38.11,0,3.7-.01,5.37-1.77,5.47-5.45.01-.45-.06-.9.01-1.34.31-1.96-.62-2.35-2.41-2.31-4.92.11-9.84.05-14.76.04-3.01,0-2.69.27-2.71-2.75,0-.36.05-.72,0-1.07-.31-1.87.62-2.24,2.28-2.17,2.59.12,5.19.03,7.78.03,4.56,0,9.13.09,13.69-.04,1.82-.05,2.27.58,2.2,2.29-.12,2.95.03,5.9-.05,8.85-.16,5.63-4.28,9.85-9.91,9.88-13.69.09-27.38.08-41.06,0-5.67-.03-9.82-4.16-9.95-9.82-.13-5.54-.14-11.1,0-16.64.15-5.48,4.4-9.51,9.91-9.55,6.89-.05,13.78,0,20.67,0h-.02Z"/>
        <path class="cls-1" d="m23.61.08c4.12,0,8.24.05,12.35-.02,2.41-.04,4.63.4,6.54,1.9.83.66,1.41.69,2.29,0,1.74-1.35,3.76-1.91,6.01-1.9,8.77.05,17.55-.02,26.32.03,5.64.03,9.9,4.13,9.98,9.78.12,8.14,0,16.29.07,24.44.02,1.63-.65,1.91-2.06,1.87-4.93-.13-3.95.53-3.99-3.91-.06-6.71,0-13.43-.02-20.14-.01-4.6-1.52-6.08-6.14-6.09-7.43,0-14.86-.01-22.29,0-4.42,0-5.93,1.52-5.95,5.98-.02,7.34-.05,14.68.03,22.02.02,1.61-.37,2.17-2.07,2.16-4.02-.03-4.02.07-4.02-3.93,0-6.62.02-13.25,0-19.87-.02-4.97-1.45-6.36-6.43-6.36H12.47c-4.92,0-6.34,1.43-6.35,6.44-.02,7.07,0,14.14,0,21.22,0,2.45-.02,2.48-2.48,2.46-4.21-.03-3.54.48-3.56-3.53-.04-7.07.18-14.15-.07-21.21C-.25,4.61,4.75-.4,11.25.03c4.1.27,8.23.05,12.35.05h0Z"/>
        <path class="cls-1" d="m154.64,21.08h-22.01c-2.42,0-2.43.02-2.44,2.51,0,3.58-.05,7.16.02,10.73.02,1.33-.33,1.85-1.79,1.88-4.29.09-4.29.16-4.29-4.2,0-6.98.14-13.96-.04-20.93C123.92,4.49,128.94-.12,135.12,0c13.06.25,26.12.24,39.18,0,5.24-.1,11.02,3.54,10.96,10.88-.06,7.69-.07,15.38.02,23.08.02,1.77-.5,2.31-2.27,2.24-4.63-.17-3.86.49-3.92-3.77-.04-3.04-.1-6.09.03-9.12.07-1.71-.4-2.3-2.21-2.27-7.42.1-14.85.04-22.27.04h0Zm-.04-5.96h1.34c6.97,0,13.95.02,20.92-.02.78,0,1.83.5,2.2-.85,1.36-4.87-1.08-8.19-6.1-8.2h-18.51c-6.35,0-12.7-.02-19.04.01-2.6.01-4.27,1.03-4.82,3.03-.32,1.18-.37,2.47-.38,3.71-.03,2.29.02,2.31,2.39,2.32,7.33.01,14.66,0,21.99,0h.01Z"/>
        <path class="cls-1" d="m449.35.08c6.62,0,13.24.16,19.85-.05,5.56-.18,10.74,4.27,10.57,10.65-.13,5,0,10.01-.04,15.02-.05,6.1-4.15,10.37-10.22,10.4-13.5.08-27.01.07-40.51,0-5.97-.03-10.11-4.1-10.29-10.09-.16-5.27-.15-10.55,0-15.83.17-6.14,4.37-10.09,10.51-10.11,6.71-.02,13.42,0,20.12,0h.01Zm.1,5.97c-6.44,0-12.87-.03-19.31.01-3.59.02-5.25,1.67-5.3,5.24-.05,4.38-.03,8.76,0,13.14.03,4.04,1.64,5.71,5.68,5.72,12.52.03,25.03.03,37.55,0,3.86-.01,5.58-1.73,5.63-5.56.05-4.29.05-8.58,0-12.87-.05-4.08-1.66-5.66-5.74-5.67-6.17-.02-12.34,0-18.5,0h-.01Z"/>
        <path class="cls-1" d="m253.06.08c6.62,0,13.24-.02,19.86,0,6.13.02,10.39,3.99,10.5,10.12.15,8.05.01,16.1.06,24.15,0,1.4-.45,1.81-1.84,1.85-4.34.1-4.33.17-4.33-4.15,0-6.62.01-13.24,0-19.85-.01-4.68-1.44-6.14-6.02-6.15h-36.76c-4.57,0-6.08,1.51-6.09,6.14-.02,7.24-.05,14.49.03,21.73.02,1.69-.37,2.36-2.2,2.28-4.69-.19-3.82.51-3.85-3.79-.06-7.15.14-14.31-.06-21.46-.18-6.28,4.68-11.16,10.86-10.93,6.61.25,13.24.06,19.85.06h-.01Z"/>
      </g>
    </g>
  </g>
</svg>