<?xml version="1.0" encoding="utf-8"?><svg version="1.1" xmlns="http://www.w3.org/2000/svg" xmlns:xlink="http://www.w3.org/1999/xlink" x="0px" y="0px" viewBox="0 0 200 200" xml:space="preserve"><g><path fill='#F98516' d="M175,98.9c-0.5,7.7-1.9,14.8-4,21.2c-2.4,6.7-5.6,13.1-9.7,19c-4,5.7-8.8,10.8-14.5,15.4c-5.6,4.3-11.8,7.8-18.3,10.5c-6.2,2.5-13,4.1-20.4,4.8c-6.9,0.5-13.9,0.2-20.9-1.1c-7.8-1.9-14.4-4.3-19.7-7.2c-6.2-3.4-11.8-7.5-16.7-12.4c-4.9-4.9-9.1-10.5-12.4-16.7c-3.1-5.6-5.5-12.1-7.1-19.7c-1.4-6.8-1.8-13.8-1.2-20.9c0.7-7.3,2.3-14.1,4.8-20.4c2.7-6.6,6.2-12.7,10.5-18.3c4.6-5.7,9.8-10.5,15.4-14.5c5.9-4.1,12.3-7.3,19-9.7c6.7-2.1,13.8-3.4,21.3-3.8c-7.8-0.2-15.1,0.6-21.7,2.5c-7.4,2.2-14.1,5.1-20.1,8.8c-6.2,4.1-11.8,9-16.7,14.6c-4.5,5.2-8.4,11.5-11.8,18.9c-2.9,6.9-4.8,14.1-5.6,21.6c-0.6,7.4-0.4,14.9,0.8,22.4c1.7,7.8,4.2,14.9,7.5,21.1c3.6,6.7,8.1,12.8,13.4,18c4.9,4.9,10.9,9.4,18,13.4c6.7,3.5,13.8,6,21,7.5c7.6,1.3,15,1.5,22.4,0.8c7.5-0.8,14.7-2.7,21.6-5.6c7.4-3.4,13.7-7.3,18.9-11.8c5.6-4.9,10.5-10.5,14.6-16.7c3.6-6,6.6-12.7,8.7-20.1C174.1,114,175,106.8,175,98.9z"/><animateTransform attributeName="transform" attributeType="XML" type="rotate" from="360 100 100" to="0 100 100" dur="2s" repeatCount="indefinite"/></g><g><path fill='#F98516' d="M65.1,129.9c-1.9,1.7-2.6,3.8-2,6.2c0.7,2.5,2.4,3.9,5.2,4.2c6.6,0.9,12.3-0.6,16.9-4.5		c3.4-2.8,5.2-5.6,5.5-8.5c-4.3,7.5-10.1,11.2-17.3,11.3c-1.1,0.2-1.9,0.2-2.2,0.1c-4-1.9-6.1-2.9-6.4-3.1c-1-0.8-1.3-1.9-0.7-3.1		C64.5,131.3,64.9,130.4,65.1,129.9 M118.4,122.6c0.1-0.4,0.1-0.7,0-1h-0.6l-0.6,0.8L118.4,122.6 M108.2,110.7l-0.6,1.4l1.5,0.4		l0.4-2.1C108.8,110.4,108.3,110.5,108.2,110.7 M112.3,109.3l0.7-0.8c-0.6-0.2-0.9-0.2-1-0.1c-0.1,0-0.2,0.1-0.4,0.3		c-0.1,0.1-0.1,0.2,0,0.3L112.3,109.3 M110.2,103.6c0.2-0.3,0.2-0.5,0.1-0.6l-1-0.4l-0.1,0.7L110.2,103.6 M82.8,118.1l0.4-2.1		c-0.7-0.2-1.2-0.2-1.3,0c-0.5,0.3-0.6,0.7-0.4,1.4C81.5,117.7,81.9,117.9,82.8,118.1 M87,108.5l0.6,0.1l-0.1,0.1h0.1		c0.9-0.8,1.3-1.5,1.1-2c-0.8-0.6-1.4-1-1.8-1.3l-0.6,3.6c-0.4-0.2-0.7-0.3-1-0.4l-1,1.3c-0.1,0,0,0.2,0.4,0.7l1.4-1.1		c0.2-0.2,0.6-0.4,1.1-0.7h-0.6L87,108.5 M82.3,106.8l-0.8,0.1c0.1,0.4,0.1,0.6,0,0.7l0.8-0.1V106.8 M96.4,107.6		c0.3-0.7,0.7-1.4,1.4-2.1c0.7-0.7,1.2-0.9,1.7-0.8c0.5,0,1.1,0.3,2,1c0.4,0.4,1,0.9,2,1.7c-0.8-0.9-1.4-1.6-1.8-2.1		c-0.7-0.8-1.4-1.4-2.1-1.7c-0.6-0.3-1.8,0.4-3.8,2.1c-0.7,0.7-0.9,1.6-0.8,2.9c0.2,1.1,0.7,2.2,1.5,3.2c0.4,0.4,1,0.9,2,1.7		c0.8,0.8,1.2,1.8,1,2.8c-0.2,1.1-0.8,1.9-1.8,2.4c-0.7,0.2-1.2,0-1.5-0.4c-0.4-0.4-1.5-1.9-3.4-4.5c-1.3-1.4-2.3-2.5-2.9-3.2		l-2.8,2.8c-1.4,2.5-2,4.4-1.8,5.6c0.2,1.2,1.3,2.8,3.4,4.9l2.5,2.2v0.1c0.3-0.3,1-0.1,2.1,0.4c5.3,1.2,8.9,1.9,10.9,2		c0.8,0.1,1.4,0.2,1.7,0.4c0.4,0.2,0.6,0.6,0.7,1.3c0.9,3.4,2.7,5.6,5.3,6.7c0.7,0.1,1.6,0.1,2.9,0.1h4.3c-0.3,0.1-0.3,0.1-0.1,0.1		c0.3,0,0.5,0,0.6,0l1-0.1h0.4l0.8-0.1l0.3-0.1l4.9-1.4c0.2-0.2,0.5-0.2,0.8,0c3.9-0.9,6.8-1.7,8.7-2.4c0.4-0.1,1.3-0.9,2.8-2.4		c-4.9,1.5-8.7,2.6-11.2,3.4c-4.5,1.3-8.4,1.9-11.7,1.8c-4.5-0.1-7.4-2.2-8.8-6.4c-0.1-0.4-0.1-0.8,0-1.3c0.2-0.5,0.4-0.8,0.6-1		l5.5-4.1c3-2.1,4-4.6,3.1-7.7c-0.2-1-0.7-1.7-1.7-2.1c-0.3-0.1-1,0.3-2.1,1.1l-1.1,1c-1.3,1.6-2.2,2.3-2.8,2.2		c-0.8,0-1.6-0.1-2.2-0.4v1.1c-0.9-0.2-1.5-0.4-1.7-0.6c-0.1,0-0.1-0.3-0.1-1l1.3,0.1c-0.5-0.2-1-0.5-1.4-1		c-0.2-0.2-0.3-0.7-0.3-1.4c0.1-0.8,0.1-1.4,0.1-1.8l-0.6-2.9l-3.1,0.6c-0.7,0.6-1.4,0.9-1.8,1.1c-0.7,0.3-1.3,0.1-1.8-0.6		C96.2,109.8,96,108.7,96.4,107.6 M93.4,119.1l0.4-0.8l2.2,1.3l-0.7,0.8L93.4,119.1 M89.2,114.2c0,0.3-0.2,0.7-0.7,1.4		c-0.6-0.4-0.8-0.6-0.8-0.7c0-0.2,0.2-0.8,0.6-2C89,113.7,89.3,114.1,89.2,114.2 M92.3,121.5c0.3-0.3,0.5-0.4,0.7-0.4		c1,0.6,2,0.6,2.9,0c0.6-0.4,1.4-1,2.4-1.8l1.3,0.1l3.2-3.6l1,1.5l2.2,4.5c0.6,1,0.7,1.8,0.6,2.2c-0.3,0.4-1,0.5-2.1,0.4l-3.5-0.1		l3.9,2.5l-0.6,0.4c-1.2,0.7-3.3,0.6-6.1-0.1c-2.8-0.7-4.6-1.6-5.3-2.7c-0.4-0.7-0.7-1.4-0.8-2.4C91.9,121.9,92,121.8,92.3,121.5		 M113.6,116.6v-1.7c1,0.8,1.6,1.3,1.7,1.4c0.2,0.5,0.3,1.2,0.4,2.2L113.6,116.6 M112.7,116.2l1.4,1.8c1.1,2.1,0.3,3.4-2.4,4.1		c-1.9,1.2-3.4,1-4.8-0.7c-0.1-0.2,0-0.6,0.1-1.1c0.4,0.1,0.8,0.2,1.4,0.3c0.6,0,1-0.2,1.3-0.7l1,1.1l-0.3-1.3v-0.8l0.8,0.4l1,1.1		l-0.6-2.9l1.1,1.1l0.4,0.7l-0.3-1L112.7,116.2 M88.5,100.6l-0.3,1l2.7,2.5l0.7-1.4C90.2,101.8,89.2,101.1,88.5,100.6 M66.2,124.1		c-6-5.7-9.7-12.4-11.2-20c0.1,0.6,0.1,1.4,0.1,2.2c0.4,3.1,1.5,6.2,3.4,9.5c0.6,1,2.4,3.9,5.6,8.5l1.7,4.2c1.3-0.3,2-0.4,2.1-0.3		c0.3,0.1,1,0.5,2.1,1.1c0.7,0.5,1.4,0.7,1.8,0.6c3.7-1,6.5-2.2,8.2-3.5c1.2-0.8,2.6-2.8,4.2-6l-2.7,3.1c-2.3,2.5-4.8,3.8-7.5,3.9		C71.2,127.6,68.6,126.5,66.2,124.1 M73.7,108.6l-0.6,0.6l0.7,0.6l0.4-0.4L73.7,108.6 M93.2,64c2.3-2.3,4.8-3.2,7.3-2.5		c2.5,0.6,4.4,2.3,5.7,5.3l2,4.5c1.7,3.6,1.3,6.7-1.3,9.1c-1.9,1.8-2.9,4-3.1,6.7c-0.2,1.7,0,4.2,0.6,7.6l2.4,12.7		c0.5-1.1,0.6-2.6,0.3-4.3c-0.5-2.1-0.8-3.6-1.1-4.8c-0.7-4.1-1.2-7.2-1.3-9.2c-0.3-3.5,1.5-6.6,5.3-9.4c3.4-2.3,7.1-3.4,11.2-3.2		c4.2,0.2,7.6,1.8,10.2,4.8c5.1,5.5,8.6,9.8,10.5,13c3.3,5.7,3.4,11.2,0.4,16.6c-3.6,6-8,10.6-13.1,13.9c-2.7,1.6-5.1,2.4-7.1,2.5		c-2.5,0.2-5-0.7-7.4-2.8c2.2,4.2,5.7,5.6,10.3,4.3c3.7-1.3,7.1-3.5,10.2-6.4c1.4-1.4,2.4-2,2.9-1.8c0.7,0.1,1.2,1.1,1.7,3.1		c0.3,1,0.4,3,0.4,6l0.8-2c0.4-0.7,0.5-1.4,0.4-1.8c-0.8-2.5-1.4-4.4-1.8-5.7c-0.5-1-0.6-1.9-0.3-2.7c2-3,3.2-5.3,3.8-7		c1.2-3.9,1.9-7.3,2-10.1l-0.3-1.5c-2.1-5.8-5.4-11.3-9.8-16.5c-0.2-0.1-0.7-0.4-1.5-1c-2.7-2.3-6.2-4.2-10.5-5.6l-2.7-0.4		c-1.3-0.2-3.4-0.3-6.1-0.3l-1.3,0.6c-0.8,0.4-1.5,0.5-2,0.3c-0.3-0.2-0.7-0.8-1.1-1.8c-1-3-2.6-6.5-4.8-10.6		c-1.1-2.4-3.4-3.7-6.7-3.9c-2.3-0.1-4.4,1-6.1,3.4c-2.1,3.1-4.3,6.6-6.4,10.5c-0.6,1.2-1,2-1.4,2.2c-0.6,0.6-1.4,0.7-2.7,0.4		c-1.5-0.3-3.1,0-4.8,0.8c-11.9,6.3-19,14.7-21.2,25c1.3-2.1,2.1-3.6,2.4-4.5c1-3,2.9-5.8,5.6-8.5c0.9-1,3.4-3.3,7.5-6.7l1.4-0.7		c2.6-2.2,5.4-3.3,8.4-3.1c2.5,0.2,5.4,1.3,8.5,3.2c3,1.8,4.4,4.2,4.3,7.3c0,7.1,0,11.3,0.1,12.7c0-6.1,0.1-10.6,0.4-13.6c0.3-3.8-1.6-6.9-5.6-9.4c-2-1.1-3-2-3.2-2.7c-0.2-0.7,0.3-2.1,1.4-3.9C89.3,68.4,91.4,65.7,93.2,64z"/><animateTransform attributeName="transform" attributeType="XML" type="rotate" from="0 100 100" to="360 100 100" dur="2s" repeatCount="indefinite"/></g></svg>