<?xml version="1.0" encoding="UTF-8"?>
<svg id="Layer_2" data-name="Layer 2" xmlns="http://www.w3.org/2000/svg" viewBox="0 0 229.85 283.89">
  <defs>
    <style>
      .cls-1 {
        fill: #f98516;
      }
    </style>
  </defs>
  <g id="Layer_2-2" data-name="Layer 2">
    <g id="Layer_1-2" data-name="Layer 1-2">
      <g>
        <path class="cls-1" d="m119.49,241.42c7.63.17,15.22-.11,22.62-2.17,9.54-2.66,17.6-7.91,24.42-14.96,6.34-6.56,12.34-13.44,18.56-20.11,2.13-2.29,4.3-4.59,6.71-6.55,15.36-12.5,33.45.48,35.81,13.38,1.55,8.45-1.39,15.54-6.35,21.93-5.91,7.61-13.78,12.78-22.73,16.03-6.18,2.25-12.65,3.68-19,5.46-.37.1-.77.1-1.15.15.36-.25.69-.58,1.08-.73,4.72-1.89,9.5-3.64,14.17-5.64,8.47-3.64,16.15-8.44,22.14-15.63,4.2-5.04,6.85-10.6,6.48-17.37-.44-8.11-7.91-16.48-17.41-15.74-3.96.31-7.14,2.21-9.89,4.89-3.84,3.75-7.52,7.67-11.37,11.4-5.2,5.04-10.25,10.28-15.82,14.87-10.96,9.02-23.81,13.48-37.91,14.63-5.25.43-10.49,1.16-15.71,1.86-1.4.19-2.76.7-4.11,1.15-2.38.8-3.77,2.51-3.69,5.02.13,3.77-1.28,6.57-4.04,9.17-3.04,2.87-4.41,6.74-3.67,10.97.56,3.22,2.71,4.89,5.92,4.54,2.35-.26,4.76-.91,6.92-1.87,9.79-4.37,19.47-8.98,29.26-13.33,2.83-1.26,5.91-1.95,8.89-2.87.26-.08.58.08.88.13-.2.17-.38.37-.6.5-12.27,6.98-24.52,13.99-36.83,20.89-3.57,2-7.38,3.06-11.59,2.13-6.75-1.5-10.56-6.52-10.03-13.4.33-4.31,1.83-8.18,4.36-11.64,1.31-1.79,2.03-3.6,2.04-5.91.05-6.16,3.99-10.54,10.14-11.09,3.81-.34,7.68-.06,11.52-.06l-.02-.03Z"/>
        <path class="cls-1" d="m67.33,79.52c-1.38,6.43-1.93,12.92-1.05,19.46,1.79,13.26,8.47,23.72,18.66,32.11,6.82,5.62,14.68,9.48,22.57,13.3,6.43,3.11,12.9,6.17,19.18,9.58,7.46,4.05,14.01,9.27,18.94,16.31,13.8,19.72,3.9,47.25-19.31,53.67-10.77,2.98-20.74,1.31-29.69-5.47-6.23-4.72-8.66-12.46-6.39-19.61.87-2.75,2.56-4.89,4.96-6.46.32-.21.77-.19,1.17-.28-.03.34-.02.69-.1,1.03-1.27,5.43-.56,10.49,2.92,14.97,2.91,3.75,6.88,5.89,11.39,7.08,17.27,4.54,35.88-9.48,34.04-29.89-.62-6.88-3.79-12.57-8.26-17.64-5.17-5.86-11.51-10.16-18.36-13.76-9.49-4.99-19.03-9.88-28.54-14.84-11.81-6.17-20.37-15.24-24.91-27.91-3.85-10.75-3.17-21.21,1.8-31.45.11-.23.34-.39.51-.59.15.13.31.26.46.39h.01Z"/>
        <path class="cls-1" d="m83.9,245.4c-8.5-1.32-16.06-4.79-23.02-9.66-7.95-5.56-15.23-11.86-21.48-19.33-2.11-2.52-4.55-4.81-7.03-6.99-4.62-4.07-9.81-5.33-15.62-2.62-6.13,2.85-10.06,7.31-10.5,14.32-.36,5.72,1.56,10.72,4.94,15.22,5.45,7.25,12.6,12.41,20.71,16.19,5.81,2.71,11.87,4.88,17.82,7.28,1.08.43,2.19.78,3.26,1.21.27.11.45.44.67.66-.33.06-.68.22-.98.16-1.22-.28-2.41-.64-3.62-.96-8.02-2.1-16.14-3.89-23.7-7.44-7.98-3.74-14.9-8.82-20.11-16.03-4.66-6.44-6.3-13.61-4.57-21.35,1.95-8.68,7.92-13.75,16.01-16.54,7.62-2.63,14.55-1.24,20.23,4.56,4.94,5.04,9.59,10.37,14.35,15.58,3.32,3.63,6.51,7.37,9.95,10.89,5.63,5.77,12.39,9.92,19.67,13.28,1.03.47,2.01,1.03,3.02,1.55v.02Z"/>
        <path class="cls-1" d="m117.4,116.74c5.35-5.33,11.99-6.38,19.1-5.61,6.25.68,11.89,3.09,17.07,6.62,1.85,1.26,1.87,1.25,3.09-.75,6.79-11.16,8.85-23.06,5.6-35.79-.15-.59-.27-1.2-.5-2.2,2.37,3.28,3.31,6.71,3.91,10.19,1.85,10.7.22,20.85-5.34,30.23-1.46,2.47-1.23,4.34.42,6.58,6.14,8.32,11.04,17.35,13.99,27.29,4.56,15.37,5.47,30.86-.54,46.02-5.77,14.53-15.65,25.27-30.85,30.43-1.77.6-3.62.97-5.44,1.41-.33.08-.7-.02-1.05-.03.31-.25.57-.61.92-.73,5.07-1.67,9.6-4.33,13.86-7.49,10.46-7.74,16.73-18.16,19.51-30.77,4.6-20.84-.58-39.82-11.03-57.79-1.48-2.55-3.02-5.07-4.6-7.56-7.73-12.22-22.8-16.69-35.98-10.72-.69.31-1.48.4-2.22.59l.07.07h0Z"/>
        <path class="cls-1" d="m56.31,61.82c-1.69-1.38-3.36-2.8-5.09-4.13-7.65-5.9-15.99-10.51-25.52-12.48-3.29-.68-6.75-.67-10.13-.67-2.42,0-4.08,1.6-4.39,3.6-.12.78-.11,1.48,1.05.93,3.32-1.56,6.47-.73,9.49.83,9.6,4.95,16.93,12.38,22.78,21.45-.33-.3-.66-.59-.97-.9-.31-.32-.58-.68-.89-1.01-5.87-6.36-12.42-11.85-20.27-15.61-1.52-.73-3.14-1.34-4.78-1.66-3.71-.72-5.83,1.58-4.62,5.17,1.45,4.31,3.11,8.56,4.92,12.73,2.7,6.21,5.9,12.22,8.35,18.53,2.03,5.21,3.28,10.72,4.88,16.1.74,2.48,1.3,5.02,2.25,7.42,2.76,6.97,9.2,9.88,16.17,7.11,3.04-1.2,5.78-3.14,8.66-4.74.37-.21.74-.4,1.12-.6-.08.4-.08.85-.26,1.21-4.01,8.04-14.78,11.69-22.79,7.71-3.85-1.91-6.18-5.1-7.21-9.19-1.04-4.15-2.1-8.32-2.75-12.54-1.15-7.44-4.17-14.15-7.36-20.86-3.52-7.42-6.98-14.87-10.21-22.42-1.07-2.49-1.7-5.3-1.88-8.01-.34-5.32,3.21-8.85,8.56-9.31,7.31-.63,13.94,1.56,20.37,4.64,7.44,3.56,13.79,8.56,19.29,14.68.51.56.96,1.18,1.43,1.78-.08.08-.16.17-.25.25h.05Z"/>
        <path class="cls-1" d="m172.81,61.51c6.37-8.13,14.44-14,23.96-17.91,5.24-2.15,10.61-3.65,16.41-3.14,6.53.57,9.98,4.84,8.81,11.34-1.08,6.03-3.38,11.65-6,17.13-2.92,6.12-6.14,12.09-9.03,18.23-2.83,6.03-4.09,12.53-5.11,19.08-.35,2.29-.81,4.57-1.46,6.79-4.13,14.02-19.48,14.19-27.17,6.26-1.3-1.34-2.35-2.92-3.47-4.42-.21-.28-.19-.74-.27-1.11.39.11.88.12,1.15.36,2.57,2.28,5.33,4.35,8.7,5.1,2.49.56,5.16.93,7.66.64,4.12-.49,7.08-3.03,8.44-6.96,1.43-4.13,2.22-8.48,3.77-12.55,4.41-11.59,9.07-23.08,13.64-34.61,1.02-2.57,2.14-5.11,3.06-7.71.31-.87.36-1.94.17-2.85-.51-2.46-1.47-3.26-3.95-2.93-1.73.23-3.45.88-5.06,1.59-7.39,3.26-13.53,8.3-19.21,13.93-.98.97-1.85,2.06-2.99,2.86,6.21-8.78,13.52-16.35,23.4-21.02,2.78-1.32,5.65-1.79,8.52-.37,1.52.75,1.2-.24,1.09-1-.27-1.91-1.63-2.95-3.93-3.4-6.33-1.25-12.22.36-18.06,2.54-8.59,3.21-15.9,8.41-22.67,14.46-.13-.11-.27-.21-.41-.3v-.03Z"/>
        <path class="cls-1" d="m69.42,131.83c.75,7.39-.97,13.76-2.74,20.15-2.69,9.71-5.81,19.37-6.55,29.47-1.23,16.69,3.75,31.29,16.18,42.79,4.16,3.85,9.14,6.81,13.74,10.19.37.27.66.67.98,1.01-.43-.03-.89.01-1.3-.1-18.86-5.13-30.58-17.36-35.3-36.18-2.48-9.87-1.44-19.79,1.68-29.34,3.12-9.56,6.96-18.89,10.42-28.34.79-2.17,1.33-4.43,1.99-6.65.24-.8.48-1.61.9-2.99h0Z"/>
        <path class="cls-1" d="m31.92,178.3c-3.76.07-7.25-.82-10.37-2.62-3.54-2.05-6.89-4.43-10.27-6.75-2.65-1.81-5.17-3.81-7.84-5.59-1.19-.79-1.34-1.32-.07-2.06,1.55-.9,3.16-1.3,4.85-.49,3.53,1.71,7.04,3.48,10.57,5.19,2.09,1.01,4.17,2.05,6.33,2.89,5.31,2.07,10,.89,14.04-3.02,1.86-1.81,3.47-3.9,5.48-5.51,1.31-1.05,3.11-1.55,4.75-2.09.78-.26,1.17.38.75,1.12-2.75,4.9-5.27,9.96-8.4,14.6-2.21,3.28-5.94,4.42-9.83,4.33h.01Z"/>
        <path class="cls-1" d="m215.84,169.3c3.21-3.03,6.16-6.24,7.67-10.47,1.81-5.07,2.62-10.24.74-15.46-1.36-3.78-3.83-4.22-6.24-1.03-1.71,2.26-3.06,4.81-4.42,7.32-2,3.7-4.06,6.22-9.9,5.38-4.2-.6-4.7.17-3.32,4.11.09.25.24.49.29.75.13.71.21,1.43.31,2.14-.55-.43-1.2-.77-1.64-1.3-1.67-2.03-3.03-4.22-2.97-6.99.05-2.19.99-3.16,3.17-3.03,1.42.08,2.82.42,4.23.68,3.04.58,4.2-.07,5.29-3.01,1.12-3.01,2.06-6.09,3.4-9,.88-1.91,2.07-3.8,3.53-5.3,3.43-3.53,8.38-3.07,10.93,1.15,1.35,2.23,2.33,4.9,2.66,7.47.83,6.43-.15,12.67-3.42,18.38-2.34,4.08-5.8,6.82-10.32,8.2h.01Z"/>
        <path class="cls-1" d="m153.26,60.9c-3.86-1.31-7.7-2.67-11.58-3.92-10.11-3.24-20.43-5.2-31.09-4.58-8.96.52-17.62,2.66-26.1,5.54-3.35,1.13-6.71,2.22-10.07,3.34-.12.04-.2.21-.28.33,0,0,.11.14.15.13.15-.05.31-.1.42-.2.57-.52,1.05-1.15,1.69-1.56,9.26-5.99,19.2-10.07,30.25-11.45,16.85-2.11,31.96,2.51,46.04,11.42.3.19.63.32.94.48-.12.16-.24.31-.36.47h-.01Z"/>
        <path class="cls-1" d="m180.24,148.07c.94,1.15,1.93,2.26,2.8,3.46,3.34,4.63,6.5,9.39,9.98,13.91,3.73,4.86,8.55,8.3,14.56,9.91,5.8,1.55,11.3.82,16.54-2.07.47-.26.93-.54,1.41-.76.43-.19.9-.3,1.35-.45-.23.45-.36,1.01-.71,1.35-1.79,1.72-3.44,3.71-5.51,4.99-8.27,5.14-18.45,3.85-25.91-3.01-5.05-4.65-8.11-10.58-10.8-16.74-1.49-3.4-2.84-6.86-4.26-10.29.18-.1.36-.21.54-.31h0Z"/>
        <path class="cls-1" d="m36.02,158.38c1.31-4.23.39-7.95-2.28-11.34-.83-1.05-1.54-2.19-2.33-3.27-.89-1.22-1.98-1.37-3.27-.45-6.01,4.3-8.1,10.49-5.97,17.67.1.32.11.67.15,1-.36-.18-.8-.27-1.07-.54-3.43-3.47-4.35-7.76-3.56-12.37,1.16-6.75,5.06-11.88,10.17-16.22.96-.82,1.65-.65,2.52.03,5.01,3.9,8.32,8.86,9.06,15.23.45,3.85-.66,7.36-3.42,10.26h0Z"/>
        <path class="cls-1" d="m143.8,44.88c-2.14-.66-3.92-1.2-5.69-1.74-15.74-4.8-31.47-4.86-47.19.07-1.36.43-2.71.9-4.08,1.3-.35.1-.75.02-1.12.03.23-.26.43-.57.7-.78,4.97-3.92,10.48-6.87,16.59-8.45,14.66-3.78,27.93-.65,39.88,8.5.26.2.43.5.91,1.08h0Z"/>
        <path class="cls-1" d="m105.34,19.17c.41.79.73,1.42,1.06,2.04,2.31,4.31,6.64,5.85,11.16,3.97,3.72-1.55,5.42-4.95,3.94-8.74-1.03-2.64-2.69-5.02-3.97-7.57-1.28-2.54-2.46-5.12-3.63-7.72-.14-.3.07-.77.12-1.15.23.26.48.5.69.78,1.88,2.48,3.82,4.93,5.61,7.48,1.59,2.25,3.36,4.46,4.44,6.95,2.08,4.81.02,10.38-4.32,12.77-4.92,2.71-10.85,1.74-14.09-2.4-1.44-1.84-2.12-3.89-1.02-6.41h.01Z"/>
        <path class="cls-1" d="m145.13,139.36c14.45,10.93,23.19,38.36,15.96,57.65,1-10.29.25-20.43-2.43-30.39s-7.55-18.85-13.53-27.26Z"/>
        <path class="cls-1" d="m92.28,96.35c-5.03-.53-9.12-1.98-11.63-6.26-.35-.6-.59-1.3-.76-1.98-.1-.4.04-.86.07-1.3.36.22.79.36,1.06.66,2.78,2.98,5.85,5.56,9.96,6.39,1.81.37,3.7.31,5.56.46.32.03.65.1.97.15-.23.23-.42.6-.7.68-1.62.47-3.26.87-4.53,1.19h0Z"/>
        <path class="cls-1" d="m116.99,79.65c2.17.06,3.82,1.85,3.7,4.02-.13,2.16-1.91,3.71-4.15,3.58-2.11-.12-3.64-1.78-3.56-3.86.08-2.18,1.82-3.8,4.01-3.74h0Z"/>
        <path class="cls-1" d="m149.45,86.5c-.32,8.07-12.73,12.37-18.84,7.61,2.36,0,4.71.37,6.87-.1,2.28-.5,4.53-1.58,6.52-2.85s3.64-3.08,5.44-4.65h.01Z"/>
        <path class="cls-1" d="m110.87,17.92c-.02-1.98,1.15-3.17,3.12-3.15,1.92.02,3.21,1.27,3.22,3.15.01,1.76-1.45,3.26-3.18,3.27-1.71.01-3.14-1.47-3.17-3.27h.01Z"/>
        <path class="cls-1" d="m116.86,97.78c-1.59-.02-3.03-1.12-2.57-2.34.52-1.38,1.74-2.5,2.66-3.73.83,1.31,2.06,2.52,2.39,3.95.31,1.38-1,2.14-2.47,2.13h-.01Z"/>
        <path class="cls-1" d="m120.12,104.83c-.88.75-1.55,1.74-2.09,1.68-.65-.08-1.63-1.06-1.64-1.66-.01-.68.9-1.37,1.41-2.06.68.6,1.36,1.2,2.32,2.04h0Z"/>
        <path class="cls-1" d="m173.21,61.81c-.05.07-.08.17-.14.21-.55.4-1.12.8-1.67,1.2l1.41-1.71c.14.09.28.19.41.3h0Z"/>
        <path class="cls-1" d="m66.86,79.13c.08-.25.12-.52.25-.74.17-.29.41-.55.61-.82-.05.31-.08.63-.15.94-.07.34-.17.67-.25,1.01-.15-.13-.31-.26-.46-.39h0Z"/>
        <path class="cls-1" d="m117.33,116.67v.42s-.07-.1-.06-.13c.03-.08.09-.15.13-.22l-.07-.07h0Z"/>
      </g>
    </g>
  </g>
</svg>